<?xml version="1.0" encoding="UTF-8" standalone="no"?>
<!-- Created with Inkscape (http://www.inkscape.org/) -->

<svg
   xmlns:osb="http://www.openswatchbook.org/uri/2009/osb"
   xmlns:dc="http://purl.org/dc/elements/1.1/"
   xmlns:cc="http://creativecommons.org/ns#"
   xmlns:rdf="http://www.w3.org/1999/02/22-rdf-syntax-ns#"
   xmlns:svg="http://www.w3.org/2000/svg"
   xmlns="http://www.w3.org/2000/svg"
   xmlns:xlink="http://www.w3.org/1999/xlink"
   xmlns:sodipodi="http://sodipodi.sourceforge.net/DTD/sodipodi-0.dtd"
   xmlns:inkscape="http://www.inkscape.org/namespaces/inkscape"
   width="744.09448819"
   height="1052.3622047"
   id="svg2"
   version="1.1"
   inkscape:version="0.48.2 r9819"
   sodipodi:docname="Cavity.svg">
  <defs
     id="defs4">
    <pattern
       inkscape:collect="always"
       xlink:href="#pattern8804"
       id="pattern8811"
       patternTransform="translate(215.21875,376.15625)" />
    <pattern
       inkscape:collect="always"
       xlink:href="#pattern8797"
       id="pattern8804"
       patternTransform="translate(215.21875,376.15625)" />
    <pattern
       inkscape:collect="always"
       xlink:href="#pattern8790"
       id="pattern8797"
       patternTransform="translate(215.21875,376.15625)" />
    <pattern
       inkscape:collect="always"
       xlink:href="#pattern8783"
       id="pattern8790"
       patternTransform="translate(215.21875,376.15625)" />
    <pattern
       inkscape:collect="always"
       xlink:href="#pattern8776"
       id="pattern8783"
       patternTransform="translate(215.21875,376.15625)" />
    <pattern
       inkscape:collect="always"
       xlink:href="#pattern8769"
       id="pattern8776"
       patternTransform="translate(215.21875,376.15625)" />
    <pattern
       inkscape:collect="always"
       xlink:href="#pattern8762"
       id="pattern8769"
       patternTransform="translate(215.21875,376.15625)" />
    <pattern
       inkscape:collect="always"
       xlink:href="#pattern8755"
       id="pattern8762"
       patternTransform="translate(215.21875,376.15625)" />
    <pattern
       inkscape:collect="always"
       xlink:href="#pattern8748"
       id="pattern8755"
       patternTransform="translate(215.21875,376.15625)" />
    <pattern
       inkscape:collect="always"
       xlink:href="#pattern8739"
       id="pattern8748"
       patternTransform="translate(215.21875,376.15625)" />
    <pattern
       inkscape:collect="always"
       xlink:href="#pattern8732"
       id="pattern8739"
       patternTransform="translate(215.21875,376.15625)" />
    <pattern
       inkscape:collect="always"
       xlink:href="#pattern8725"
       id="pattern8732"
       patternTransform="translate(215.21875,376.15625)" />
    <pattern
       inkscape:collect="always"
       xlink:href="#pattern8718"
       id="pattern8725"
       patternTransform="translate(215.21875,376.15625)" />
    <pattern
       inkscape:collect="always"
       xlink:href="#pattern8711"
       id="pattern8718"
       patternTransform="translate(215.21875,376.15625)" />
    <pattern
       inkscape:collect="always"
       xlink:href="#pattern8704"
       id="pattern8711"
       patternTransform="translate(215.21875,376.15625)" />
    <pattern
       inkscape:collect="always"
       xlink:href="#pattern8697"
       id="pattern8704"
       patternTransform="translate(215.21875,376.15625)" />
    <pattern
       inkscape:collect="always"
       xlink:href="#pattern8690"
       id="pattern8697"
       patternTransform="translate(215.21875,376.15625)" />
    <pattern
       inkscape:collect="always"
       xlink:href="#pattern8683"
       id="pattern8690"
       patternTransform="translate(215.21875,376.15625)" />
    <pattern
       inkscape:collect="always"
       xlink:href="#pattern8676"
       id="pattern8683"
       patternTransform="translate(215.21875,376.15625)" />
    <pattern
       inkscape:collect="always"
       xlink:href="#pattern8669"
       id="pattern8676"
       patternTransform="translate(215.21875,376.15625)" />
    <pattern
       inkscape:collect="always"
       xlink:href="#pattern8662"
       id="pattern8669"
       patternTransform="translate(215.21875,376.15625)" />
    <pattern
       inkscape:collect="always"
       xlink:href="#pattern8652"
       id="pattern8662"
       patternTransform="translate(215.21875,376.15625)" />
    <pattern
       inkscape:collect="always"
       xlink:href="#pattern8645"
       id="pattern8652"
       patternTransform="translate(215.21875,376.15625)" />
    <pattern
       inkscape:collect="always"
       xlink:href="#pattern8638"
       id="pattern8645"
       patternTransform="translate(215.21875,376.15625)" />
    <pattern
       inkscape:collect="always"
       xlink:href="#pattern8631"
       id="pattern8638"
       patternTransform="translate(215.21875,376.15625)" />
    <pattern
       inkscape:collect="always"
       xlink:href="#pattern8624"
       id="pattern8631"
       patternTransform="translate(215.21875,376.15625)" />
    <pattern
       inkscape:collect="always"
       xlink:href="#pattern8617"
       id="pattern8624"
       patternTransform="translate(215.21875,376.15625)" />
    <pattern
       inkscape:collect="always"
       xlink:href="#pattern8514"
       id="pattern8617"
       patternTransform="translate(215.21875,376.15625)" />
    <linearGradient
       id="linearGradient8506"
       osb:paint="solid">
      <stop
         style="stop-color:#000000;stop-opacity:1;"
         offset="0"
         id="stop8508" />
    </linearGradient>
    <marker
       inkscape:stockid="Arrow1Lend"
       orient="auto"
       refY="0.0"
       refX="0.0"
       id="Arrow1Lend"
       style="overflow:visible;">
      <path
         id="path6476"
         d="M 0.0,0.0 L 5.0,-5.0 L -12.5,0.0 L 5.0,5.0 L 0.0,0.0 z "
         style="fill-rule:evenodd;stroke:#000000;stroke-width:1.0pt;marker-start:none;"
         transform="scale(0.8) rotate(180) translate(12.5,0)" />
    </marker>
    <linearGradient
       id="linearGradient5744"
       osb:paint="solid">
      <stop
         style="stop-color:#000000;stop-opacity:1;"
         offset="0"
         id="stop5746" />
    </linearGradient>
    <linearGradient
       id="linearGradient5571">
      <stop
         style="stop-color:#ff7b90;stop-opacity:1;"
         offset="0"
         id="stop5573" />
      <stop
         style="stop-color:#ff7b90;stop-opacity:0;"
         offset="1"
         id="stop5575" />
    </linearGradient>
    <linearGradient
       id="linearGradient5565"
       osb:paint="solid">
      <stop
         style="stop-color:#ff7b90;stop-opacity:1;"
         offset="0"
         id="stop5567" />
    </linearGradient>
    <radialGradient
       inkscape:collect="always"
       xlink:href="#linearGradient5571"
       id="radialGradient5577"
       cx="396.42856"
       cy="526.64789"
       fx="396.42856"
       fy="526.64789"
       r="181.21428"
       gradientTransform="matrix(1,0,0,0.8305085,0,89.262338)"
       gradientUnits="userSpaceOnUse" />
    <pattern
       patternUnits="userSpaceOnUse"
       width="362.4375"
       height="301"
       patternTransform="translate(215.21875,376.15625)"
       id="pattern8514">
      <path
         d="m 577.14284,526.64789 a 180.71428,150 0 1 1 -361.42856,0 180.71428,150 0 1 1 361.42856,0 z"
         sodipodi:ry="150"
         sodipodi:rx="180.71428"
         sodipodi:cy="526.64789"
         sodipodi:cx="396.42856"
         id="path2985"
         style="fill:url(#radialGradient5577);fill-opacity:1;fill-rule:nonzero;stroke:#000000;stroke-opacity:1;marker-start:none;marker-mid:none;marker-end:none"
         sodipodi:type="arc"
         transform="translate(-215.21875,-376.15625)" />
    </pattern>
  </defs>
  <sodipodi:namedview
     id="base"
     pagecolor="#ffffff"
     bordercolor="#666666"
     borderopacity="1.0"
     inkscape:pageopacity="0.0"
     inkscape:pageshadow="2"
     inkscape:zoom="1.4"
     inkscape:cx="350.21759"
     inkscape:cy="519.77177"
     inkscape:document-units="px"
     inkscape:current-layer="layer1"
     showgrid="false"
     inkscape:window-width="1400"
     inkscape:window-height="975"
     inkscape:window-x="-9"
     inkscape:window-y="-9"
     inkscape:window-maximized="1">
    <inkscape:grid
       type="xygrid"
       id="grid8742" />
  </sodipodi:namedview>
  <metadata
     id="metadata7">
    <rdf:RDF>
      <cc:Work
         rdf:about="">
        <dc:format>image/svg+xml</dc:format>
        <dc:type
           rdf:resource="http://purl.org/dc/dcmitype/StillImage" />
      </cc:Work>
    </rdf:RDF>
  </metadata>
  <g
     inkscape:label="Layer 1"
     inkscape:groupmode="layer"
     id="layer1"
     style="display:inline">
    <path
       style="stroke:none;fill:url(#pattern8811);stroke-opacity:1"
       d="M 215.21875 376.15625 L 215.21875 677.15625 L 347.25 677.15625 C 347.0865 676.9043 346.95865 676.61781 346.8125 676.3125 C 345.85432 674.31089 346.46668 675.55602 344.90625 672.71875 C 344.86451 672.63803 344.82147 672.55035 344.78125 672.46875 C 344.11727 672.20834 343.48049 671.92491 342.9375 671.53125 C 342.90594 671.58161 342.87818 671.60202 342.84375 671.65625 C 341.11924 674.3728 341.24482 673.29153 341.78125 671.625 C 339.9912 673.03104 337.44596 674.7311 337.15625 671.65625 C 337.09067 670.9602 337.07115 670.26697 337.125 669.59375 C 336.92467 669.64374 336.72945 669.70846 336.53125 669.78125 C 335.09614 669.86585 331.90263 669.73973 331.375 667.96875 C 331.3112 667.75463 332.2312 668.13095 332.03125 668.03125 C 331.23128 667.63252 330.28423 667.61578 329.53125 667.09375 C 328.45013 666.89828 327.89458 666.8318 327.40625 666.71875 C 326.24061 668.24639 324.15194 668.21783 322.375 668.5 C 319.36276 668.06353 315.60657 668.65976 312.90625 666.9375 C 312.12272 666.43776 311.55585 665.69504 310.875 665.0625 C 309.59815 663.60927 308.95775 665.39011 307.625 663.4375 C 307.17193 662.77371 306.99422 661.97404 306.78125 661.1875 C 306.77721 661.18075 306.78538 661.16298 306.78125 661.15625 C 306.7451 661.09736 306.66712 661.05774 306.625 661 C 305.6817 661.29757 304.74357 661.6499 303.21875 662.15625 C 298.95774 663.57123 296.66959 660.17566 298.65625 658.09375 C 298.19975 658.08508 297.73783 658.06234 297.28125 658.0625 C 296.80697 658.05545 296.35824 658.07323 295.9375 658.09375 C 295.33478 658.15236 294.47965 658.61004 294.25 658.09375 C 293.09598 658.0363 292.55641 657.619 293.03125 655.75 C 292.92622 655.79631 292.82372 655.82402 292.71875 655.875 C 289.82378 657.2809 288.16738 656.04642 288.25 654.28125 C 286.68217 653.03017 286.94497 650.86491 289.0625 649.9375 C 289.08653 649.72347 289.58194 649.19714 289.59375 649.1875 C 289.63885 649.1507 289.49495 649.42052 289.53125 649.375 C 289.64065 649.23768 289.71787 649.05413 289.8125 648.90625 C 289.63311 648.83345 289.41938 648.77614 288.78125 648.5625 C 288.58208 648.49582 288.41554 648.40409 288.28125 648.3125 C 288.27383 648.30744 288.25723 648.31762 288.25 648.3125 C 287.54079 648.82626 286.33772 648.02526 287.03125 646.84375 C 287.27401 646.43017 287.46545 646.03462 287.75 645.6875 C 287.74474 645.6762 287.75158 645.67357 287.75 645.65625 C 287.74921 645.64759 287.7805 645.63492 287.78125 645.625 C 287.78797 645.53575 287.83351 645.40088 288.125 645.25 C 288.189 645.21688 288.2758 645.19565 288.34375 645.15625 C 288.70009 644.94962 289.07923 644.68553 289.40625 644.875 C 289.43034 644.88896 289.44597 644.89254 289.46875 644.90625 C 289.64004 644.90621 289.7087 644.97899 289.71875 645.09375 C 290.60973 645.74683 289.98076 646.10633 289.6875 646.5625 C 289.6172 646.67185 289.56729 646.79502 289.5 646.90625 C 290.47217 647.22668 290.37946 647.15772 291.1875 647.625 C 291.20693 647.51435 291.32575 647.47486 291.65625 647.5 C 291.75652 647.13107 292.08067 647.0203 293 647.59375 C 293.13459 647.57731 293.27056 647.53464 293.40625 647.53125 C 293.49555 647.52925 293.40625 647.72321 293.40625 647.8125 L 293.40625 647.84375 C 293.5294 647.93077 293.48459 648.09037 293.40625 648.25 C 293.61894 648.40242 293.56643 648.42137 293.40625 648.375 L 293.40625 648.40625 C 293.46895 648.43378 293.45876 648.42972 293.625 648.5 C 293.37231 648.77544 293.83018 648.26288 294.34375 648.84375 C 294.54205 649.06804 294.67099 649.22974 294.75 649.375 C 296.85745 649.05454 299.00675 649.20583 301.15625 649.40625 C 301.55636 649.31722 301.9729 649.24587 302.125 649.5 C 302.47177 649.53055 302.80985 649.56926 303.15625 649.59375 C 302.95013 650.49603 302.87166 651.45404 302.71875 652.375 C 303.67716 652.37521 304.63559 652.37473 305.59375 652.375 C 305.67335 652.37 310.90556 651.99924 310.90625 652 C 310.97686 652.07824 311.02742 652.16829 311.09375 652.25 C 311.40864 652.2305 311.67042 652.2616 311.875 652.375 C 313.15809 652.37499 314.43566 652.37496 315.71875 652.375 L 316.4375 652.375 C 318.32686 652.37506 319.56024 652.99465 320.1875 653.84375 C 323.6085 653.87743 324.96443 654.97858 327.09375 657.53125 C 327.18464 657.59242 327.19445 657.59114 327.25 657.625 C 327.19571 657.53951 327.14846 657.46558 327.09375 657.375 C 327.0711 657.33754 327.7239 657.91387 327.25 657.625 C 328.37956 659.40387 329.39251 660.13131 328.9375 661.1875 C 329.37293 661.35084 329.81163 661.45782 330.25 661.4375 C 333.25583 662.31465 333.48866 662.3262 335.875 664.46875 C 336.01594 664.5953 336.27228 665.02885 336.3125 664.84375 C 336.4066 664.41086 335.80965 664.25233 335.5625 664.15625 C 336.97726 663.79139 341.80488 663.32169 343 663.78125 C 343.23275 663.87075 343.43672 663.97668 343.65625 664.09375 C 343.67647 664.09932 343.69843 664.08798 343.71875 664.09375 C 344.0498 664.18767 344.39273 664.28955 344.75 664.4375 C 345.14134 664.59956 345.46788 664.78512 345.78125 664.96875 C 345.85527 664.83471 345.94435 664.9114 346.03125 665.125 C 347.25918 665.91674 347.98146 666.91215 348.75 668.125 C 349.10525 668.3379 349.47832 668.47439 349.9375 668.34375 C 350.20735 668.22153 350.59334 668.04356 350.875 668.15625 C 351.98823 668.60164 352.98364 669.2605 354.03125 669.84375 C 354.1856 669.92965 354.29216 670.15196 354.46875 670.15625 C 354.69272 670.16125 354.86052 669.97193 355.0625 669.875 L 357.71875 670.71875 C 361.29282 672.02 362.75077 669.96149 365.8125 672.71875 C 365.86123 672.74225 365.90802 672.77417 365.96875 672.8125 C 366.62077 673.22394 366.35027 672.961 366.75 673.59375 C 367.0397 673.85564 367.23743 674.03418 367.375 674.21875 C 367.58203 674.14941 367.83522 674.11119 367.9375 674.125 C 368.21922 674.00908 368.50189 673.90223 368.78125 673.78125 C 370.53256 673.5783 372.27674 673.67974 374.03125 673.75 C 374.12418 673.60919 374.22597 673.46687 374.28125 673.34375 C 375.21775 672.92869 376.10073 672.34516 377.09375 672.09375 C 378.28537 671.79206 380.4496 672.0636 381.6875 672.1875 C 382.21146 672.23999 382.72582 672.32505 383.25 672.375 C 385.77203 669.57059 389.83368 670.82142 393.15625 671.03125 C 395.76031 671.04728 397.47688 670.33054 398.40625 674.34375 C 398.64326 673.6501 399.1909 672.91136 400.1875 672.03125 C 401.07006 671.25186 404.64485 672.0187 405.8125 672.21875 C 406.50564 672.22719 407.2758 672.41453 408.0625 672.53125 C 408.07371 672.45759 408.08359 672.3862 408.09375 672.3125 C 408.93172 672.30071 409.75601 672.27524 410.59375 672.28125 C 410.78739 672.14928 410.9758 672.00258 411.1875 671.90625 C 413.09381 671.03874 413.34341 671.07084 415.375 670.59375 C 417.42568 670.5798 419.41948 670.82141 421.4375 670.90625 C 421.4995 670.90987 421.56301 670.9021 421.625 670.90625 C 422.23622 670.92873 422.84841 670.95955 423.46875 670.9375 C 424.57371 670.91697 425.67624 670.90421 426.78125 670.90625 C 427.04115 670.65633 427.24151 670.44327 427.75 670 C 428.4271 670.3567 427.58252 669.99167 429.15625 669.1875 C 430.00087 668.75592 430.88644 668.33006 431.8125 668.125 C 432.44044 667.98595 433.07568 668.14635 433.71875 668.15625 C 434.16689 668.16325 434.96184 667.75073 435.0625 668.1875 C 435.14038 668.52541 435.19844 668.84372 435.21875 669.1875 C 435.30591 668.73128 435.44099 668.29159 435.65625 667.875 C 435.97252 667.26294 436.93851 667.6087 437.6875 667.6875 C 438.3025 666.92616 439.30777 666.60893 441.34375 666.65625 C 443.41731 666.58742 445.50028 666.4845 447.5625 666.6875 C 447.79637 666.6438 448.14018 666.61631 448.46875 666.625 C 448.50264 666.55539 450.26562 666.59416 452.03125 666.625 C 454.58789 665.84411 457.96026 664.32125 458.71875 665.25 C 458.82344 665.37818 458.91003 665.51929 459 665.65625 C 459.0423 665.66988 459.10469 665.67663 459.15625 665.6875 C 459.13349 664.92346 459.12729 664.17617 459.3125 663.4375 C 459.3299 663.36808 459.54119 663.35648 459.8125 663.375 C 460.31754 662.54792 463.14149 662.26223 464.71875 662.125 C 464.77148 662.06035 464.81961 662.0029 464.875 661.9375 C 464.89251 661.84837 464.95129 661.77432 465.0625 661.71875 C 465.77216 660.92206 466.63699 660.17124 467.5 660.25 C 467.81264 660.00695 468.19936 659.7294 468.59375 659.46875 C 468.96269 658.79857 469.35854 658.13588 469.9375 657.65625 C 470.67387 657.04622 471.72344 657.0062 472.625 656.6875 C 474.22663 656.72912 475.80748 656.71702 477.40625 656.65625 C 477.47224 656.55634 477.54661 656.46785 477.625 656.375 C 478.00222 655.92816 481.07053 655.09843 482.40625 655.4375 C 482.48121 655.20567 482.57418 654.98333 482.625 654.75 C 482.67103 654.6443 482.68649 654.61112 482.71875 654.53125 C 482.68569 654.33435 482.67718 654.11406 482.71875 653.8125 C 482.17187 653.0966 482.05265 652.51493 482.90625 652.25 C 481.75174 649.23291 483.04565 649.66904 485.625 649.4375 C 486.43517 649.3518 488.79541 649.04184 489.53125 649.1875 C 489.87874 649.25629 490.22667 649.3502 490.5625 649.46875 C 492.72761 649.47935 494.89733 649.50813 497.0625 649.5 C 498.43819 649.497 497.8104 649.501 498.9375 649.5 C 498.99307 649.49995 499.03927 649.49896 499.09375 649.5 C 498.75299 648.96227 499.15761 648.21937 500.3125 648.25 C 500.32668 648.25045 500.45149 648.25076 500.53125 648.25 C 500.5437 647.6379 500.64957 647.04804 501.28125 646.9375 C 501.29893 646.79851 501.31417 646.69912 501.34375 646.6875 C 501.55249 646.60566 501.74142 646.54694 501.90625 646.5 C 501.91245 646.49362 501.93099 646.50617 501.9375 646.5 C 502.05194 646.39158 502.20963 646.30173 502.4375 646.28125 C 502.90114 646.23958 503.18693 646.32339 503.375 646.5 C 503.43792 646.47793 503.50213 646.46342 503.5625 646.4375 C 504.17162 646.17592 503.99671 646.47313 503.59375 646.875 C 503.63556 646.97667 503.6933 647.07537 503.71875 647.1875 C 503.76298 647.16035 503.79892 647.11993 503.84375 647.09375 C 503.88535 647.06945 503.77175 647.17152 503.78125 647.21875 C 503.82766 647.45023 503.90232 647.6545 504 647.84375 C 504.51162 648.07738 504.32361 647.95794 504.375 648.375 C 504.44844 648.43348 504.51224 648.46437 504.59375 648.53125 C 504.65263 648.57954 504.57907 648.66791 504.53125 648.75 C 504.60045 648.88254 504.68118 649.00357 504.71875 649.125 C 504.73376 649.07196 504.75004 649.02271 504.78125 649.03125 C 504.86995 649.05555 504.8233 649.22117 504.8125 649.3125 C 504.82506 649.41861 504.83116 649.5189 504.84375 649.625 L 504.84375 649.90625 C 504.84648 650.87002 504.29685 651.27461 503.8125 651.1875 C 503.8112 651.19769 503.8139 651.20853 503.8125 651.21875 C 503.78702 651.40475 503.71111 651.53345 503.625 651.625 C 503.51118 651.91349 503.33367 652.10621 503.125 652.1875 C 503.23068 653.51247 502.14061 654.88767 499.78125 655.15625 C 499.77454 655.17686 499.75693 655.19784 499.75 655.21875 C 500.50728 657.50485 499.94557 658.01287 498.6875 658.09375 C 498.64001 659.05946 498.54859 660.04002 498.5625 661 C 498.12994 660.98637 498.11952 660.97332 497.96875 660.96875 C 497.83041 661.36944 497.11135 660.9442 496.6875 660.9375 C 495.69612 660.92184 494.71008 660.90705 493.71875 660.90625 C 492.51348 661.5645 492.10269 661.79426 490.125 662.15625 C 489.84331 662.20785 489.56671 662.02288 489.28125 662 C 488.94669 661.97318 488.61354 661.96305 488.28125 661.96875 C 487.79795 662.4884 487.32552 663.00242 486.78125 663.4375 C 486.34435 663.78675 485.66166 663.57287 485.15625 663.8125 C 484.31788 664.20998 483.71494 664.98884 482.6875 664.9375 C 480.8354 666.05559 481.50684 665.78593 478.4375 666.4375 C 478.30947 666.4647 479.11404 665.97154 478.40625 666.0625 L 478.03125 666.15625 L 476.28125 667.5625 C 476.3306 667.44164 476.48073 667.17906 476.5 667.09375 C 476.49393 667.09571 476.478 667.08803 476.46875 667.09375 C 476.1953 667.26299 476.04909 667.59625 475.84375 667.84375 L 472.9375 669.46875 C 472.90733 669.47977 472.87417 669.4908 472.84375 669.5 C 472.69404 669.89421 472.54954 670.31886 472.34375 670.78125 C 472.27055 670.94572 470.97418 671.01808 469.5625 671.03125 C 467.13517 672.60979 466.98538 672.37592 464.25 672.375 C 463.75779 672.37483 463.27346 672.37521 462.78125 672.375 C 460.23894 672.37408 457.69856 672.37277 455.15625 672.375 C 454.8752 672.40636 454.49397 672.42595 454.09375 672.4375 C 454.03121 672.4782 453.97918 672.52224 453.90625 672.5625 C 451.29566 674.00367 451.92036 673.67718 449.59375 673.65625 C 449.21127 673.6528 448.93149 673.66218 448.75 673.6875 C 448.30006 674.76968 447.40354 675.46429 446.25 676.15625 C 446.1539 676.21385 446.40987 675.75706 446.3125 675.8125 C 446.02007 675.97904 445.83173 676.29329 445.59375 676.53125 C 445.24375 676.72982 444.90368 676.93879 444.5625 677.15625 L 577.65625 677.15625 L 577.65625 376.15625 L 435.375 376.15625 C 436.15641 376.51563 436.78072 376.95613 436.8125 377.46875 C 436.85388 378.13598 436.75985 378.78565 436.59375 379.4375 C 438.69566 379.36777 440.83522 379.49807 442.9375 379.53125 C 445.30002 379.50295 447.63727 379.4959 450 379.5 C 452.18406 380.66755 452.58174 380.65576 452.75 381.03125 C 452.80201 381.01022 452.85427 380.98985 452.90625 380.96875 C 453.74472 380.97775 459.95914 380.55791 460.3125 380.9375 C 461.17675 381.8659 461.73211 382.46418 462.125 382.9375 C 462.43564 383.06587 462.91549 383.95445 463.3125 384.21875 C 463.60611 384.41421 466.55121 383.93933 466.84375 383.90625 C 468.75223 383.45077 471.17033 384.33732 472.15625 386.09375 C 472.28413 386.32157 472.3743 386.56843 472.46875 386.8125 C 473.53779 386.91677 474.81409 387.30577 475.8125 387.65625 C 476.47768 387.88975 476.98015 388.55032 477.65625 388.75 C 477.59603 388.68956 477.32224 388.48932 477.21875 388.40625 C 477.4361 388.36455 477.66133 388.22359 477.875 388.28125 C 485.71007 390.39558 478.06299 388.44425 481.5 389.9375 C 481.72743 390.03631 482.38335 389.94497 483 389.84375 C 483.41612 389.49937 483.84624 389.35003 484.3125 389.625 C 485.52236 390.33851 485.01159 392.06144 484.65625 393.6875 C 485.15256 393.36992 485.74397 393.07384 486.46875 392.8125 C 486.61489 392.11111 487.13292 391.65603 488.40625 391.71875 C 489.45164 391.77024 490.55457 391.98264 491.59375 392.34375 C 492.67306 392.53405 493.65548 393.00347 494.4375 393.84375 C 495.10487 394.3582 495.64932 394.9244 495.96875 395.5625 C 496.12594 395.53173 496.29684 395.51997 496.375 395.53125 C 497.42007 395.05274 497.29805 395.19502 499.34375 395.09375 C 502.80662 395.25416 503.1561 396.08889 504.09375 398.25 C 504.42243 398.29718 504.76492 398.31349 505.125 398.3125 C 510.48347 398.29772 510.55674 403.68661 505.75 404 C 505.34543 404.77374 504.52848 405.43309 503.53125 406.59375 C 502.6536 407.61524 501.57002 407.97411 500.3125 408.375 C 499.79754 408.38578 499.46522 408.35395 499.09375 408.34375 C 498.09944 408.9617 497.09432 408.33781 496.28125 407.5625 C 495.83895 407.2727 495.32517 406.88939 494.625 406.375 C 494.5375 406.31072 494.45615 406.23182 494.375 406.15625 C 494.27248 406.11704 494.1622 406.07707 494.0625 406.03125 C 494.0114 406.00777 493.94593 405.96526 493.875 405.9375 C 493.85463 405.99595 493.86631 406.07774 493.84375 406.125 L 493.125 405.625 C 492.67649 405.66137 493.171 405.62334 492.375 405.6875 C 491.5842 405.53093 490.75849 405.49183 490 405.21875 C 487.63746 404.36817 488.92184 404.60018 487.78125 403.65625 C 486.94864 402.9672 485.61638 402.66119 485.21875 401.65625 C 484.57223 400.02229 484.49269 399.10044 484.75 398.4375 C 483.40471 398.14379 482.39994 397.28572 481.40625 395.4375 C 480.37742 395.36145 479.35883 395.14527 478.28125 394.65625 C 477.95248 394.50704 477.28269 394.3926 477.34375 394.0625 C 477.14449 394.07477 476.9489 394.10929 476.75 394.125 C 474.4009 393.58724 475.3031 394.01361 474.03125 393.25 C 473.66598 393.0307 472.83366 393.00695 472.9375 392.59375 C 472.95115 392.53945 472.96684 392.50055 473 392.46875 C 472.6269 392.62244 472.25257 392.73648 471.875 392.875 C 468.94976 391.80243 468.99495 392.4685 467.59375 389.90625 C 467.54235 389.81225 467.97357 390.03838 467.9375 389.9375 C 467.88628 389.7944 467.6193 389.67357 467.46875 389.5625 C 464.5291 389.87826 461.99301 390.07157 459.40625 388.375 C 459.33885 388.3308 459.36765 388.23322 459.34375 388.15625 L 458.3125 386.59375 C 457.23327 386.56302 456.35216 386.54426 455.21875 386.5625 C 454.75616 386.5695 454.30604 386.57565 453.84375 386.59375 C 454.04688 386.34055 454.75356 385.76978 454.4375 385.84375 C 453.60004 386.03974 453.01589 386.97256 452.15625 387 C 450.48572 387.05332 449.01857 386.50709 448.34375 385.21875 C 446.50693 385.21895 444.68046 385.2306 442.84375 385.25 C 440.01811 385.204 437.15296 384.94778 434.34375 385.375 C 432.60118 385.59111 430.93195 385.75121 429.375 384.75 C 428.94148 384.47122 428.28026 384.29208 427.9375 383.9375 C 427.51625 383.99986 427.03224 384.00433 426.0625 384.09375 C 425.37006 383.92731 424.665 383.85711 423.96875 383.8125 C 423.3346 383.81523 422.69666 383.81173 422.0625 383.8125 C 421.55304 383.81311 420.7575 384.26877 420.53125 383.8125 C 420.52079 383.7914 420.5102 383.77119 420.5 383.75 C 420.39515 383.74892 420.29243 383.75208 420.1875 383.75 C 420.08122 383.74813 420.32479 383.73256 420.5 383.71875 C 420.14398 382.97038 419.9332 382.1681 419.78125 381.34375 C 418.61633 380.94067 416.56046 380.06884 416.34375 379.625 C 416.11111 379.14855 415.93387 378.62208 415.875 378.09375 C 415.34381 378.09745 414.8127 378.09263 414.28125 378.09375 C 411.43672 378.09875 408.59446 378.0741 405.75 378.0625 C 402.7618 378.107 399.75004 378.35049 396.78125 377.875 C 396.77625 377.87433 395.1659 377.64936 394.96875 377.65625 C 392.77811 377.73275 390.96776 380.07743 388.625 379.46875 C 388.03334 379.48709 387.43636 379.50739 386.84375 379.53125 C 386.84361 379.66232 386.84637 379.76901 386.84375 379.90625 C 386.83489 380.37132 386.31643 380.65278 385.59375 380.84375 C 385.17493 381.53259 384.77281 382.24847 384.15625 382.75 C 381.83648 384.63697 378.04208 383.75752 375.34375 383.78125 C 374.34131 383.65869 373.14501 383.32216 372.125 383.34375 C 370.35237 383.38125 369.14538 385.46976 367.28125 385.21875 C 364.58973 385.19895 361.90816 385.2171 359.21875 385.3125 C 357.61837 385.19838 357.05897 385.27225 355.90625 384.75 C 355.80975 384.85124 355.78786 384.86501 355.65625 385 C 354.75091 385.54272 353.91597 386.22905 352.9375 386.625 C 352.51788 386.79479 352.04632 386.64715 351.59375 386.65625 C 349.40823 386.70045 347.21364 386.81731 345.03125 386.625 C 344.5536 386.5749 344.06966 386.53339 343.59375 386.46875 C 343.4348 386.44715 343.20586 386.48227 343.125 386.34375 C 343.11025 386.31848 343.1228 386.30691 343.15625 386.28125 C 341.43262 386.8952 339.82211 387.75912 337.90625 387.78125 C 337.54446 387.72505 337.10433 387.84609 336.8125 387.625 C 336.6722 387.51872 336.99636 387.31936 337.0625 387.15625 C 337.12417 387.00415 337.24486 386.63719 337.28125 386.5 C 335.84573 388.64679 336.24141 388.63425 334.15625 390.625 C 332.7728 391.32533 331.6491 391.94973 330.0625 392.34375 C 328.40667 392.75496 325.76235 392.03601 324.03125 392.4375 C 322.71999 392.4425 322.13114 392.48515 320.84375 392.34375 C 320.40855 392.29596 320.17569 392.22336 320.03125 392.15625 C 319.91839 392.22446 319.8347 392.28407 319.65625 392.375 C 318.87324 392.73807 318.13802 393.21683 317.3125 393.46875 C 316.49558 393.71805 315.56934 393.47749 314.75 393.71875 C 314.72698 393.72553 314.71006 393.74156 314.6875 393.75 C 316.55664 394.57526 318.03547 395.69342 317.71875 397.1875 C 316.54941 402.70369 311.8926 401.57856 308.15625 401.1875 C 307.50174 401.0945 306.84361 400.98729 306.1875 400.90625 C 306.17716 400.90497 306.16659 400.90737 306.15625 400.90625 C 306.00101 401.19558 305.49011 401.07252 305.0625 401.03125 C 305.03872 401.04868 305.02426 401.0769 305 401.09375 C 304.61184 401.36338 304.07166 401.33711 303.65625 401.5625 C 301.51985 402.72162 299.64104 404.32678 297.4375 405.375 C 295.48446 406.30405 293.79168 406.1982 292.71875 405.59375 C 292.66747 405.7988 292.52105 406.0722 292.125 406.46875 C 292.01217 406.58172 291.88811 406.60666 291.78125 406.5625 C 291.68638 407.0297 291.36871 407.29058 291 407.21875 C 290.67726 407.46335 290.12751 407.54791 289.46875 407.1875 C 288.71508 406.77517 288.27937 406.08192 287.6875 405.5 C 286.42695 404.26063 287.69491 402.96142 288.9375 404.21875 L 288.96875 404.125 C 288.93715 404.11314 288.90581 404.12647 288.84375 404.09375 C 287.28008 403.26917 290.04138 401.80146 290.53125 403.5 C 290.5454 403.54907 290.55027 403.55297 290.5625 403.59375 C 290.57364 403.599 290.5839 403.62194 290.59375 403.625 C 290.63298 403.63719 290.65147 403.64545 290.6875 403.65625 C 290.72874 403.43202 290.96587 403.42157 291.4375 403.59375 C 291.46274 403.58467 291.50785 403.5703 291.53125 403.5625 C 291.61481 402.62796 292.34217 401.59997 294 400.78125 C 294.54513 400.51204 295.07443 400.22208 295.59375 399.90625 C 295.1006 399.9913 294.66587 400.0663 294.125 400.15625 C 288.54479 401.08428 287.39914 395.35651 293 394.5625 C 295.90237 394.15104 298.85552 393.41349 301.8125 393.40625 C 302.46541 392.61764 303.54863 392.49758 304.46875 392.125 C 304.71911 391.81533 305.0295 391.54171 305.40625 391.375 C 305.41477 391.27216 305.41775 391.15355 305.4375 391.0625 C 305.86461 390.66066 306.20962 390.16603 306.71875 389.875 C 308.61626 388.79032 309.15231 388.86309 310.6875 389 C 310.92244 388.68543 311.96528 388.6378 312.46875 388.46875 C 313.21887 388.21688 313.99961 388.02938 314.78125 387.90625 C 316.5262 387.63137 317.9992 387.90104 316.4375 387.65625 C 318.5837 385.76429 321.39698 386.74695 323.96875 386.71875 C 325.7155 386.31978 328.4066 387.04583 330.0625 386.625 C 330.19329 386.5918 330.04785 386.33037 330.15625 386.25 C 330.57484 385.93965 331.09758 385.7666 331.5625 385.53125 C 331.42887 385.50345 331.09063 385.5572 331.15625 385.4375 C 331.41279 384.96957 331.93373 384.71107 332.25 384.28125 C 332.3018 384.21095 331.94448 384.37987 332 384.3125 C 334.11016 381.7511 335.4175 381.84859 338.53125 382.125 C 340.67244 380.55978 343.12994 380.67707 345.625 380.9375 C 345.69357 381.16169 349.65601 381.00031 351.6875 380.9375 C 352.96795 379.60534 354.9155 378.81385 356.78125 379.15625 C 356.97325 379.19149 357.16643 379.26237 357.34375 379.34375 C 357.39548 378.5854 357.45602 377.80783 357.53125 376.59375 C 357.55265 376.2488 358.21693 376.5675 358.5625 376.5625 C 359.74517 376.54539 360.94531 376.5657 362.125 376.65625 C 363.10565 376.65469 364.08186 376.65953 365.0625 376.65625 C 365.49394 376.49411 365.87891 376.34871 366.34375 376.15625 L 215.21875 376.15625 z M 289.8125 648.90625 C 289.79 648.97565 289.70439 649.18191 289.75 649.125 C 289.82795 649.02769 289.82266 649.01192 289.875 648.9375 C 289.85644 648.92901 289.83191 648.91413 289.8125 648.90625 z M 306.78125 661.15625 C 306.76403 661.09297 306.73666 661.03173 306.71875 660.96875 C 306.70327 660.97358 306.67174 660.96388 306.65625 660.96875 C 306.69992 661.02969 306.74047 661.09392 306.78125 661.15625 z M 341.78125 671.625 C 342.00995 671.44536 342.24103 671.25299 342.4375 671.09375 C 342.31379 670.96166 342.19343 670.81377 342.09375 670.65625 C 341.97003 670.9911 341.88205 671.31184 341.78125 671.625 z M 430.21875 376.15625 C 430.25211 376.19656 430.2783 376.24171 430.3125 376.28125 C 430.3886 376.36925 430.67943 376.57159 430.625 376.46875 C 430.56356 376.35266 430.46046 376.25666 430.375 376.15625 L 430.21875 376.15625 z M 424.53125 378.03125 C 424.4381 378.03604 424.39913 378.05848 424.28125 378.0625 C 424.35787 378.0627 424.42263 378.06228 424.5 378.0625 C 424.51175 378.05487 424.51777 378.03805 424.53125 378.03125 z M 419.21875 378.0625 C 419.28088 378.09823 419.32186 378.09746 419.375 378.125 C 419.57935 378.0964 419.79569 378.08705 420 378.0625 C 419.73948 378.0624 419.47919 378.06166 419.21875 378.0625 z M 386.34375 379.5625 C 386.27862 379.71505 386.20117 379.882 386.125 380 C 386.15789 380.0298 386.18544 380.06437 386.21875 380.09375 C 386.37272 380.22957 386.65911 379.84016 386.71875 379.5625 C 386.59401 379.56746 386.46849 379.55785 386.34375 379.5625 z M 452.125 381.28125 C 451.41054 381.23905 449.49635 382.37081 450.15625 382.09375 C 450.81092 381.81888 451.46602 381.54568 452.125 381.28125 z M 452.96875 381.8125 C 453.07957 382.23702 453.25338 382.85667 453.65625 383.8125 C 453.93244 384.46778 453.69353 382.72289 452.96875 381.8125 z M 356.4375 384.1875 C 356.3803 384.25277 356.15908 384.45752 356.03125 384.59375 C 356.09955 384.61978 356.15361 384.63136 356.21875 384.65625 C 356.19653 384.51986 356.33343 384.3128 356.4375 384.1875 z M 448.90625 385.21875 C 449.25469 385.6433 449.65735 385.84289 450 385.21875 C 449.63472 385.21814 449.27152 385.21896 448.90625 385.21875 z M 472.71875 387.25 C 472.70063 387.25479 472.67518 387.27536 472.65625 387.28125 C 472.78724 387.64502 472.91162 388.00451 473.09375 388.34375 C 473.1111 388.37606 473.14789 388.3666 473.15625 388.375 C 473.12386 388.18941 472.86935 387.50176 472.71875 387.25 z M 474.46875 391.9375 C 474.00426 392.04215 473.56738 392.22658 473.125 392.40625 C 473.41567 392.31883 473.94101 392.47565 474.25 392.34375 C 474.39529 392.28175 474.62286 391.90279 474.46875 391.9375 z M 501.78125 646.71875 C 501.69871 646.73809 501.61273 646.7552 501.5625 646.78125 C 501.52368 646.84214 501.52924 646.85838 501.5 646.90625 C 501.56763 646.90598 501.62865 646.92972 501.6875 646.9375 C 501.7057 646.92392 501.73298 646.91946 501.75 646.90625 C 501.76331 646.84614 501.7569 646.7735 501.78125 646.71875 z M 503.40625 647.03125 C 503.39565 647.04135 503.38574 647.05233 503.375 647.0625 C 503.40448 647.10503 503.43774 647.13315 503.46875 647.1875 C 503.48145 647.15135 503.4453 647.07748 503.40625 647.03125 z M 483.125 655.15625 C 483.18406 655.70721 483.34538 656.31778 483.8125 656.84375 C 484.38532 656.71598 484.95231 656.58899 485.53125 656.5 C 485.11662 656.13462 484.62795 655.73342 484.15625 655.3125 C 483.71759 655.3339 483.37677 655.28509 483.125 655.15625 z M 314.71875 660.875 C 314.81571 660.94917 314.84986 660.96548 314.9375 661.03125 L 314.875 660.90625 C 314.87066 660.89539 314.87914 660.88578 314.875 660.875 C 314.81142 660.8722 314.7817 660.8776 314.71875 660.875 z M 470.53125 670.28125 C 470.519 670.30332 470.54089 670.36978 470.5625 670.4375 C 470.57922 670.34721 470.58306 670.33575 470.59375 670.28125 C 470.57389 670.2801 470.53941 670.26654 470.53125 670.28125 z M 444.71875 670.5 C 444.61118 670.47448 443.96238 670.71725 443.625 670.90625 C 443.65067 670.99167 443.67127 671.06891 443.6875 671.15625 C 443.91363 671.03065 444.15185 670.90886 444.46875 670.71875 C 444.72668 670.56402 444.76714 670.51148 444.71875 670.5 z M 443.59375 672.3125 C 443.56891 672.39468 443.56489 672.47885 443.53125 672.5625 C 443.63453 673.18797 443.8309 673.66745 444.0625 673.3125 C 444.26461 673.00274 444.39353 672.66187 444.5 672.3125 C 444.21071 672.31274 443.91475 672.30778 443.625 672.3125 C 443.62418 672.31524 443.59458 672.30976 443.59375 672.3125 z M 352.375 675.0625 C 352.59616 675.86582 352.63422 676.56078 352.5 677.15625 L 361.875 677.15625 C 361.92641 677.1394 362.08411 677.16285 362.15625 677.15625 C 362.08677 677.0873 361.96642 676.98671 361.84375 676.90625 C 360.37154 677.03593 359.57572 677.03241 358.0625 676.71875 C 357.33516 676.56799 356.65325 676.32367 355.9375 676.125 C 354.76964 675.7294 353.55566 675.43308 352.375 675.0625 z "
       id="rect8517" />
  </g>
</svg>
