<?xml version="1.0" encoding="UTF-8" standalone="no"?>
<!-- Created with Inkscape (http://www.inkscape.org/) -->

<svg
   xmlns:dc="http://purl.org/dc/elements/1.1/"
   xmlns:cc="http://creativecommons.org/ns#"
   xmlns:rdf="http://www.w3.org/1999/02/22-rdf-syntax-ns#"
   xmlns:svg="http://www.w3.org/2000/svg"
   xmlns="http://www.w3.org/2000/svg"
   xmlns:sodipodi="http://sodipodi.sourceforge.net/DTD/sodipodi-0.dtd"
   xmlns:inkscape="http://www.inkscape.org/namespaces/inkscape"
   width="744.09448819"
   height="1052.3622047"
   id="svg2983"
   version="1.1"
   inkscape:version="0.48.2 r9819"
   sodipodi:docname="New document 1">
  <defs
     id="defs2985" />
  <sodipodi:namedview
     id="base"
     pagecolor="#ffffff"
     bordercolor="#666666"
     borderopacity="1.0"
     inkscape:pageopacity="0.0"
     inkscape:pageshadow="2"
     inkscape:zoom="0.7"
     inkscape:cx="98.63358"
     inkscape:cy="520.95454"
     inkscape:document-units="px"
     inkscape:current-layer="layer1"
     showgrid="false"
     inkscape:window-width="1400"
     inkscape:window-height="975"
     inkscape:window-x="-9"
     inkscape:window-y="-9"
     inkscape:window-maximized="1" />
  <metadata
     id="metadata2988">
    <rdf:RDF>
      <cc:Work
         rdf:about="">
        <dc:format>image/svg+xml</dc:format>
        <dc:type
           rdf:resource="http://purl.org/dc/dcmitype/StillImage" />
        <dc:title></dc:title>
      </cc:Work>
    </rdf:RDF>
  </metadata>
  <g
     inkscape:label="Layer 1"
     inkscape:groupmode="layer"
     id="layer1">
    <rect
       style="fill:none;fill-opacity:0.89019607999999983;stroke:#000000;stroke-opacity:1;stroke-width:6;stroke-miterlimit:4;stroke-dasharray:none"
       id="rect2991"
       width="222.85715"
       height="222.85715"
       x="232.85715"
       y="345.21933" />
    <g
       id="layer1-7"
       inkscape:label="Layer 1"
       transform="matrix(1,0,0,0.93624131,-475.71427,-245.07094)">
      <path
         transform="matrix(0.30319153,0,0,0.28007386,604.72642,484.10488)"
         d="m 488.57143,558.07648 c 0,88.36556 -60.12177,160 -134.28572,160 -74.16396,0 -134.28573,-71.63444 -134.28573,-160 0,-88.36556 60.12177,-160 134.28573,-160 74.16395,0 134.28572,71.63444 134.28572,160 z"
         sodipodi:ry="160"
         sodipodi:rx="134.28572"
         sodipodi:cy="558.07648"
         sodipodi:cx="354.28571"
         id="path8835"
         style="fill:#d702ff;fill-opacity:1;fill-rule:nonzero;stroke:none"
         sodipodi:type="arc" />
    </g>
    <g
       id="layer1-7-4"
       inkscape:label="Layer 1"
       transform="matrix(1,0,0,0.93624131,-479.28571,-35.785215)">
      <path
         transform="matrix(0.30319153,0,0,0.28007386,604.72642,484.10488)"
         d="m 488.57143,558.07648 c 0,88.36556 -60.12177,160 -134.28572,160 -74.16396,0 -134.28573,-71.63444 -134.28573,-160 0,-88.36556 60.12177,-160 134.28573,-160 74.16395,0 134.28572,71.63444 134.28572,160 z"
         sodipodi:ry="160"
         sodipodi:rx="134.28572"
         sodipodi:cy="558.07648"
         sodipodi:cx="354.28571"
         id="path8835-0"
         style="fill:#d702ff;fill-opacity:1;fill-rule:nonzero;stroke:none"
         sodipodi:type="arc" />
    </g>
    <g
       id="layer1-7-9"
       inkscape:label="Layer 1"
       transform="matrix(1,0,0,0.93624131,-256.42856,-247.21379)">
      <path
         transform="matrix(0.30319153,0,0,0.28007386,604.72642,484.10488)"
         d="m 488.57143,558.07648 c 0,88.36556 -60.12177,160 -134.28572,160 -74.16396,0 -134.28573,-71.63444 -134.28573,-160 0,-88.36556 60.12177,-160 134.28573,-160 74.16395,0 134.28572,71.63444 134.28572,160 z"
         sodipodi:ry="160"
         sodipodi:rx="134.28572"
         sodipodi:cy="558.07648"
         sodipodi:cx="354.28571"
         id="path8835-4"
         style="fill:#d702ff;fill-opacity:1;fill-rule:nonzero;stroke:none"
         sodipodi:type="arc" />
    </g>
    <g
       id="layer1-7-8"
       inkscape:label="Layer 1"
       transform="matrix(1,0,0,0.93624131,-256.42856,-35.785215)">
      <path
         transform="matrix(0.30319153,0,0,0.28007386,604.72642,484.10488)"
         d="m 488.57143,558.07648 c 0,88.36556 -60.12177,160 -134.28572,160 -74.16396,0 -134.28573,-71.63444 -134.28573,-160 0,-88.36556 60.12177,-160 134.28573,-160 74.16395,0 134.28572,71.63444 134.28572,160 z"
         sodipodi:ry="160"
         sodipodi:rx="134.28572"
         sodipodi:cy="558.07648"
         sodipodi:cx="354.28571"
         id="path8835-8"
         style="fill:#d702ff;fill-opacity:1;fill-rule:nonzero;stroke:none"
         sodipodi:type="arc" />
    </g>
  </g>
</svg>
