<?xml version="1.0" encoding="UTF-8" standalone="no"?>
<!-- Created with Inkscape (http://www.inkscape.org/) -->

<svg
   xmlns:dc="http://purl.org/dc/elements/1.1/"
   xmlns:cc="http://creativecommons.org/ns#"
   xmlns:rdf="http://www.w3.org/1999/02/22-rdf-syntax-ns#"
   xmlns:svg="http://www.w3.org/2000/svg"
   xmlns="http://www.w3.org/2000/svg"
   xmlns:sodipodi="http://sodipodi.sourceforge.net/DTD/sodipodi-0.dtd"
   xmlns:inkscape="http://www.inkscape.org/namespaces/inkscape"
   width="744.09448819"
   height="1052.3622047"
   id="svg2983"
   version="1.1"
   inkscape:version="0.48.2 r9819"
   sodipodi:docname="DensityIncrease2.svg"
   inkscape:export-filename="E:\References\Queens\Works\Thesis\PPT\Figs\DensityIncrease2.png"
   inkscape:export-xdpi="201"
   inkscape:export-ydpi="201">
  <defs
     id="defs2985" />
  <sodipodi:namedview
     id="base"
     pagecolor="#ffffff"
     bordercolor="#666666"
     borderopacity="1.0"
     inkscape:pageopacity="0.0"
     inkscape:pageshadow="2"
     inkscape:zoom="0.7"
     inkscape:cx="98.63358"
     inkscape:cy="520.95454"
     inkscape:document-units="px"
     inkscape:current-layer="layer1"
     showgrid="false"
     inkscape:window-width="1400"
     inkscape:window-height="975"
     inkscape:window-x="-9"
     inkscape:window-y="-9"
     inkscape:window-maximized="1" />
  <metadata
     id="metadata2988">
    <rdf:RDF>
      <cc:Work
         rdf:about="">
        <dc:format>image/svg+xml</dc:format>
        <dc:type
           rdf:resource="http://purl.org/dc/dcmitype/StillImage" />
        <dc:title></dc:title>
      </cc:Work>
    </rdf:RDF>
  </metadata>
  <g
     inkscape:label="Layer 1"
     inkscape:groupmode="layer"
     id="layer1">
    <rect
       style="fill:none;fill-opacity:0.89019607999999983;stroke:#000000;stroke-opacity:1;stroke-width:6;stroke-miterlimit:4;stroke-dasharray:none"
       id="rect2991"
       width="222.85715"
       height="222.85715"
       x="232.85715"
       y="345.21933" />
    <rect
       style="fill:none;stroke:#000000;stroke-width:6;stroke-miterlimit:4;stroke-opacity:1;stroke-dasharray:none"
       id="rect2991-2"
       width="222.85715"
       height="222.85715"
       x="232.85713"
       y="125.21933" />
    <rect
       style="fill:none;stroke:#000000;stroke-width:6;stroke-miterlimit:4;stroke-opacity:1;stroke-dasharray:none"
       id="rect2991-4"
       width="222.85715"
       height="222.85715"
       x="454.28571"
       y="123.79075" />
    <rect
       style="fill:none;stroke:#000000;stroke-width:6;stroke-miterlimit:4;stroke-opacity:1;stroke-dasharray:none"
       id="rect2991-5"
       width="222.85715"
       height="222.85715"
       x="454.28571"
       y="345.79074" />
    <g
       id="layer1-7-9"
       inkscape:label="Layer 1"
       transform="matrix(1,0,0,0.92030164,-345.57142,-246.29162)">
      <path
         transform="matrix(0.30319153,0,0,0.28007386,604.72642,484.10488)"
         d="m 488.57143,558.07648 c 0,88.36556 -60.12177,160 -134.28572,160 -74.16396,0 -134.28573,-71.63444 -134.28573,-160 0,-88.36556 60.12177,-160 134.28573,-160 74.16395,0 134.28572,71.63444 134.28572,160 z"
         sodipodi:ry="160"
         sodipodi:rx="134.28572"
         sodipodi:cy="558.07648"
         sodipodi:cx="354.28571"
         id="path8835-4"
         style="fill:#d702ff;fill-opacity:1;fill-rule:nonzero;stroke:none"
         sodipodi:type="arc" />
    </g>
    <g
       id="layer1-7-9-5"
       inkscape:label="Layer 1"
       transform="matrix(1,0,0,0.92030164,-335.2857,-22.720188)">
      <path
         transform="matrix(0.30319153,0,0,0.28007386,604.72642,484.10488)"
         d="m 488.57143,558.07648 c 0,88.36556 -60.12177,160 -134.28572,160 -74.16396,0 -134.28573,-71.63444 -134.28573,-160 0,-88.36556 60.12177,-160 134.28573,-160 74.16395,0 134.28572,71.63444 134.28572,160 z"
         sodipodi:ry="160"
         sodipodi:rx="134.28572"
         sodipodi:cy="558.07648"
         sodipodi:cx="354.28571"
         id="path8835-4-1"
         style="fill:#d702ff;fill-opacity:1;fill-rule:nonzero;stroke:none"
         sodipodi:type="arc" />
    </g>
    <g
       id="layer1-7-9-7"
       inkscape:label="Layer 1"
       transform="matrix(1,0,0,0.92030164,-480.71427,-164.14876)">
      <path
         transform="matrix(0.30319153,0,0,0.28007386,604.72642,484.10488)"
         d="m 488.57143,558.07648 c 0,88.36556 -60.12177,160 -134.28572,160 -74.16396,0 -134.28573,-71.63444 -134.28573,-160 0,-88.36556 60.12177,-160 134.28573,-160 74.16395,0 134.28572,71.63444 134.28572,160 z"
         sodipodi:ry="160"
         sodipodi:rx="134.28572"
         sodipodi:cy="558.07648"
         sodipodi:cx="354.28571"
         id="path8835-4-11"
         style="fill:#d702ff;fill-opacity:1;fill-rule:nonzero;stroke:none"
         sodipodi:type="arc" />
    </g>
    <g
       id="layer1-7-9-52"
       inkscape:label="Layer 1"
       transform="matrix(1,0,0,0.92030164,-479.28571,-22.720188)">
      <path
         transform="matrix(0.30319153,0,0,0.28007386,604.72642,484.10488)"
         d="m 488.57143,558.07648 c 0,88.36556 -60.12177,160 -134.28572,160 -74.16396,0 -134.28573,-71.63444 -134.28573,-160 0,-88.36556 60.12177,-160 134.28573,-160 74.16395,0 134.28572,71.63444 134.28572,160 z"
         sodipodi:ry="160"
         sodipodi:rx="134.28572"
         sodipodi:cy="558.07648"
         sodipodi:cx="354.28571"
         id="path8835-4-7"
         style="fill:#d702ff;fill-opacity:1;fill-rule:nonzero;stroke:none"
         sodipodi:type="arc" />
    </g>
    <g
       id="layer1-7-9-6"
       inkscape:label="Layer 1"
       transform="matrix(1,0,0,0.92030164,-36.428559,-21.291616)">
      <path
         transform="matrix(0.30319153,0,0,0.28007386,604.72642,484.10488)"
         d="m 488.57143,558.07648 c 0,88.36556 -60.12177,160 -134.28572,160 -74.16396,0 -134.28573,-71.63444 -134.28573,-160 0,-88.36556 60.12177,-160 134.28573,-160 74.16395,0 134.28572,71.63444 134.28572,160 z"
         sodipodi:ry="160"
         sodipodi:rx="134.28572"
         sodipodi:cy="558.07648"
         sodipodi:cx="354.28571"
         id="path8835-4-14"
         style="fill:#d702ff;fill-opacity:1;fill-rule:nonzero;stroke:none"
         sodipodi:type="arc" />
    </g>
    <g
       id="layer1-7-9-2"
       inkscape:label="Layer 1"
       transform="matrix(1,0,0,0.92030164,-36.42856,-321.29162)">
      <path
         transform="matrix(0.30319153,0,0,0.28007386,604.72642,484.10488)"
         d="m 488.57143,558.07648 c 0,88.36556 -60.12177,160 -134.28572,160 -74.16396,0 -134.28573,-71.63444 -134.28573,-160 0,-88.36556 60.12177,-160 134.28573,-160 74.16395,0 134.28572,71.63444 134.28572,160 z"
         sodipodi:ry="160"
         sodipodi:rx="134.28572"
         sodipodi:cy="558.07648"
         sodipodi:cx="354.28571"
         id="path8835-4-3"
         style="fill:#d702ff;fill-opacity:1;fill-rule:nonzero;stroke:none"
         sodipodi:type="arc" />
    </g>
    <g
       id="layer1-7-9-22"
       inkscape:label="Layer 1"
       transform="matrix(1,0,0,0.92030164,-34.999988,-464.14876)">
      <path
         transform="matrix(0.30319153,0,0,0.28007386,604.72642,484.10488)"
         d="m 488.57143,558.07648 a 134.28572,160 0 1 1 -268.57145,0 134.28572,160 0 1 1 268.57145,0 z"
         sodipodi:ry="160"
         sodipodi:rx="134.28572"
         sodipodi:cy="558.07648"
         sodipodi:cx="354.28571"
         id="path8835-4-16"
         style="fill:#d702ff;fill-opacity:1;fill-rule:nonzero;stroke:none"
         sodipodi:type="arc" />
    </g>
    <g
       id="layer1-7-9-8"
       inkscape:label="Layer 1"
       transform="matrix(1,0,0,0.92030164,-330.71427,-465.57734)">
      <path
         transform="matrix(0.30319153,0,0,0.28007386,604.72642,484.10488)"
         d="m 488.57143,558.07648 c 0,88.36556 -60.12177,160 -134.28572,160 -74.16396,0 -134.28573,-71.63444 -134.28573,-160 0,-88.36556 60.12177,-160 134.28573,-160 74.16395,0 134.28572,71.63444 134.28572,160 z"
         sodipodi:ry="160"
         sodipodi:rx="134.28572"
         sodipodi:cy="558.07648"
         sodipodi:cx="354.28571"
         id="path8835-4-5"
         style="fill:#d702ff;fill-opacity:1;fill-rule:nonzero;stroke:none"
         sodipodi:type="arc" />
    </g>
    <g
       id="layer1-7-9-76"
       inkscape:label="Layer 1"
       transform="matrix(1,0,0,0.92030164,-479.2857,-465.57733)">
      <path
         transform="matrix(0.30319153,0,0,0.28007386,604.72642,484.10488)"
         d="m 488.57143,558.07648 c 0,88.36556 -60.12177,160 -134.28572,160 -74.16396,0 -134.28573,-71.63444 -134.28573,-160 0,-88.36556 60.12177,-160 134.28573,-160 74.16395,0 134.28572,71.63444 134.28572,160 z"
         sodipodi:ry="160"
         sodipodi:rx="134.28572"
         sodipodi:cy="558.07648"
         sodipodi:cx="354.28571"
         id="path8835-4-18"
         style="fill:#d702ff;fill-opacity:1;fill-rule:nonzero;stroke:none"
         sodipodi:type="arc" />
    </g>
    <g
       id="layer1-7-9-7-9"
       inkscape:label="Layer 1"
       transform="matrix(1,0,0,0.92030164,-479.2857,-317.0059)">
      <path
         transform="matrix(0.30319153,0,0,0.28007386,604.72642,484.10488)"
         d="m 488.57143,558.07648 c 0,88.36556 -60.12177,160 -134.28572,160 -74.16396,0 -134.28573,-71.63444 -134.28573,-160 0,-88.36556 60.12177,-160 134.28573,-160 74.16395,0 134.28572,71.63444 134.28572,160 z"
         sodipodi:ry="160"
         sodipodi:rx="134.28572"
         sodipodi:cy="558.07648"
         sodipodi:cx="354.28571"
         id="path8835-4-11-2"
         style="fill:#d702ff;fill-opacity:1;fill-rule:nonzero;stroke:none"
         sodipodi:type="arc" />
    </g>
    <g
       id="layer1-7-9-7-7"
       inkscape:label="Layer 1"
       transform="matrix(1,0,0,0.92030164,-177.85713,-465.57733)">
      <path
         transform="matrix(0.30319153,0,0,0.28007386,604.72642,484.10488)"
         d="m 488.57143,558.07648 c 0,88.36556 -60.12177,160 -134.28572,160 -74.16396,0 -134.28573,-71.63444 -134.28573,-160 0,-88.36556 60.12177,-160 134.28573,-160 74.16395,0 134.28572,71.63444 134.28572,160 z"
         sodipodi:ry="160"
         sodipodi:rx="134.28572"
         sodipodi:cy="558.07648"
         sodipodi:cx="354.28571"
         id="path8835-4-11-9"
         style="fill:#d702ff;fill-opacity:1;fill-rule:nonzero;stroke:none"
         sodipodi:type="arc" />
    </g>
    <g
       id="layer1-7-9-7-5"
       inkscape:label="Layer 1"
       transform="matrix(1,0,0,0.92030164,-259.2857,-328.43447)">
      <path
         transform="matrix(0.30319153,0,0,0.28007386,604.72642,484.10488)"
         d="m 488.57143,558.07648 c 0,88.36556 -60.12177,160 -134.28572,160 -74.16396,0 -134.28573,-71.63444 -134.28573,-160 0,-88.36556 60.12177,-160 134.28573,-160 74.16395,0 134.28572,71.63444 134.28572,160 z"
         sodipodi:ry="160"
         sodipodi:rx="134.28572"
         sodipodi:cy="558.07648"
         sodipodi:cx="354.28571"
         id="path8835-4-11-4"
         style="fill:#d702ff;fill-opacity:1;fill-rule:nonzero;stroke:none"
         sodipodi:type="arc" />
    </g>
    <g
       id="layer1-7-9-7-3"
       inkscape:label="Layer 1"
       transform="matrix(1,0,0,0.92030164,-259.2857,-162.72019)">
      <path
         transform="matrix(0.30319153,0,0,0.28007386,604.72642,484.10488)"
         d="m 488.57143,558.07648 c 0,88.36556 -60.12177,160 -134.28572,160 -74.16396,0 -134.28573,-71.63444 -134.28573,-160 0,-88.36556 60.12177,-160 134.28573,-160 74.16395,0 134.28572,71.63444 134.28572,160 z"
         sodipodi:ry="160"
         sodipodi:rx="134.28572"
         sodipodi:cy="558.07648"
         sodipodi:cx="354.28571"
         id="path8835-4-11-1"
         style="fill:#d702ff;fill-opacity:1;fill-rule:nonzero;stroke:none"
         sodipodi:type="arc" />
    </g>
    <g
       id="layer1-7-9-7-2"
       inkscape:label="Layer 1"
       transform="matrix(1,0,0,0.92030164,-162.99998,-245.57733)">
      <path
         transform="matrix(0.30319153,0,0,0.28007386,604.72642,484.10488)"
         d="m 488.57143,558.07648 c 0,88.36556 -60.12177,160 -134.28572,160 -74.16396,0 -134.28573,-71.63444 -134.28573,-160 0,-88.36556 60.12177,-160 134.28573,-160 74.16395,0 134.28572,71.63444 134.28572,160 z"
         sodipodi:ry="160"
         sodipodi:rx="134.28572"
         sodipodi:cy="558.07648"
         sodipodi:cx="354.28571"
         id="path8835-4-11-3"
         style="fill:#d702ff;fill-opacity:1;fill-rule:nonzero;stroke:none"
         sodipodi:type="arc" />
    </g>
    <g
       id="layer1-7-9-7-34"
       inkscape:label="Layer 1"
       transform="matrix(1,0,0,0.92030164,-37.85713,-162.72019)">
      <path
         transform="matrix(0.30319153,0,0,0.28007386,604.72642,484.10488)"
         d="m 488.57143,558.07648 c 0,88.36556 -60.12177,160 -134.28572,160 -74.16396,0 -134.28573,-71.63444 -134.28573,-160 0,-88.36556 60.12177,-160 134.28573,-160 74.16395,0 134.28572,71.63444 134.28572,160 z"
         sodipodi:ry="160"
         sodipodi:rx="134.28572"
         sodipodi:cy="558.07648"
         sodipodi:cx="354.28571"
         id="path8835-4-11-11"
         style="fill:#d702ff;fill-opacity:1;fill-rule:nonzero;stroke:none"
         sodipodi:type="arc" />
    </g>
    <g
       id="layer1-7-9-7-38"
       inkscape:label="Layer 1"
       transform="matrix(1,0,0,0.92030164,-170.71427,-20.434473)">
      <path
         transform="matrix(0.30319153,0,0,0.28007386,604.72642,484.10488)"
         d="m 488.57143,558.07648 c 0,88.36556 -60.12177,160 -134.28572,160 -74.16396,0 -134.28573,-71.63444 -134.28573,-160 0,-88.36556 60.12177,-160 134.28573,-160 74.16395,0 134.28572,71.63444 134.28572,160 z"
         sodipodi:ry="160"
         sodipodi:rx="134.28572"
         sodipodi:cy="558.07648"
         sodipodi:cx="354.28571"
         id="path8835-4-11-7"
         style="fill:#d702ff;fill-opacity:1;fill-rule:nonzero;stroke:none"
         sodipodi:type="arc" />
    </g>
  </g>
</svg>
