<?xml version="1.0" encoding="UTF-8" standalone="no"?>
<!-- Created with Inkscape (http://www.inkscape.org/) -->

<svg
   xmlns:dc="http://purl.org/dc/elements/1.1/"
   xmlns:cc="http://creativecommons.org/ns#"
   xmlns:rdf="http://www.w3.org/1999/02/22-rdf-syntax-ns#"
   xmlns:svg="http://www.w3.org/2000/svg"
   xmlns="http://www.w3.org/2000/svg"
   xmlns:sodipodi="http://sodipodi.sourceforge.net/DTD/sodipodi-0.dtd"
   xmlns:inkscape="http://www.inkscape.org/namespaces/inkscape"
   width="744.09448819"
   height="1052.3622047"
   id="svg3285"
   version="1.1"
   inkscape:version="0.48.2 r9819"
   sodipodi:docname="New document 1">
  <defs
     id="defs3287">
    <marker
       inkscape:stockid="Arrow1Lend"
       orient="auto"
       refY="0.0"
       refX="0.0"
       id="Arrow1Lend"
       style="overflow:visible;">
      <path
         id="path4272"
         d="M 0.0,0.0 L 5.0,-5.0 L -12.5,0.0 L 5.0,5.0 L 0.0,0.0 z "
         style="fill-rule:evenodd;stroke:#000000;stroke-width:1.0pt;marker-start:none;"
         transform="scale(0.8) rotate(180) translate(12.5,0)" />
    </marker>
    <inkscape:path-effect
       effect="skeletal"
       id="path-effect4084"
       is_visible="true"
       pattern="M 0,0 0,10 10,5 z"
       copytype="single_stretched"
       prop_scale="1"
       scale_y_rel="false"
       spacing="0"
       normal_offset="0"
       tang_offset="0"
       prop_units="false"
       vertical_pattern="false"
       fuse_tolerance="0" />
    <inkscape:path-effect
       effect="spiro"
       id="path-effect4082"
       is_visible="true" />
  </defs>
  <sodipodi:namedview
     id="base"
     pagecolor="#ffffff"
     bordercolor="#666666"
     borderopacity="1.0"
     inkscape:pageopacity="0.0"
     inkscape:pageshadow="2"
     inkscape:zoom="1.979899"
     inkscape:cx="333.00064"
     inkscape:cy="734.65488"
     inkscape:document-units="px"
     inkscape:current-layer="layer1"
     showgrid="false"
     inkscape:window-width="1280"
     inkscape:window-height="738"
     inkscape:window-x="-8"
     inkscape:window-y="-8"
     inkscape:window-maximized="1" />
  <metadata
     id="metadata3290">
    <rdf:RDF>
      <cc:Work
         rdf:about="">
        <dc:format>image/svg+xml</dc:format>
        <dc:type
           rdf:resource="http://purl.org/dc/dcmitype/StillImage" />
        <dc:title></dc:title>
      </cc:Work>
    </rdf:RDF>
  </metadata>
  <g
     inkscape:label="Layer 1"
     inkscape:groupmode="layer"
     id="layer1">
    <path
       style="fill:none;fill-opacity:1;stroke-width:2.70000005;stroke-miterlimit:4;stroke-dasharray:none;stroke:#000000;stroke-opacity:0.98000001999999997;stroke-linecap:round"
       d="M 310 273.78125 C 280.01883 273.78125 255.71875 308.33267 255.71875 350.9375 C 255.71875 362.7004 257.59365 373.83513 260.90625 383.8125 C 266.79105 382.43403 273.40694 381.65625 280.8125 381.65625 L 286.09375 381.65625 L 308.84375 381.65625 L 335 381.65625 C 344.07096 381.65625 351.99195 382.79755 358.78125 384.8125 C 362.30299 374.58553 364.28125 363.09311 364.28125 350.9375 C 364.28125 308.33267 339.98117 273.78125 310 273.78125 z "
       id="path3293" />
    <path
       sodipodi:type="arc"
       style="fill:#ff7b90;fill-opacity:1;stroke:#000000;stroke-width:2.70000005;stroke-linecap:round;stroke-miterlimit:4;stroke-opacity:0.98000004;stroke-dasharray:none"
       id="path4078"
       sodipodi:cx="311.42856"
       sodipodi:cy="490.21933"
       sodipodi:rx="52.857143"
       sodipodi:ry="15"
       d="m 364.2857,490.21933 a 52.857143,15 0 1 1 -105.71429,0 52.857143,15 0 1 1 105.71429,0 z"
       transform="matrix(0.92091283,0,0,1,22.882488,-105.71429)" />
    <path
       style="fill:#ff7b90;fill-opacity:1;stroke:#000000;stroke-width:0.5;stroke-linecap:round;stroke-linejoin:round;stroke-miterlimit:4;stroke-opacity:0.98000004;stroke-dasharray:none;stroke-dashoffset:0"
       id="path5256"
       d="m 306.27343,273.41822 c 0.0575,-0.23869 0.0983,-0.48206 0.17266,-0.71608 0.20372,-0.64151 0.48876,-1.25505 0.69765,-1.89489 0.38036,-1.1651 0.61556,-2.33846 0.82863,-3.54288 0.15848,-1.74113 0.51201,-3.5287 0.35595,-5.28565 -0.0579,-0.65189 -0.36499,-1.68752 -0.53215,-2.31146 -0.88663,-2.09929 -2.60049,-3.60317 -4.11791,-5.22949 -1.64691,-1.56637 -3.26527,-3.1837 -5.16391,-4.44551 -2.15205,-1.5092 -3.95077,-3.33366 -5.38306,-5.53329 -1.44625,-2.41017 -2.02192,-5.11449 -2.19291,-7.88591 0.0192,-2.98017 1.11028,-8.89359 3.14511,-10.92785 4.20278,-3.16318 4.83761,-4.24082 9.78994,-6.02188 2.62536,-1.0566 9.96681,0.58555 12.76796,0.38441 2.81102,0.0462 5.5486,0.6442 8.15129,1.68441 2.46596,0.97382 4.83336,2.17673 7.21174,3.34343 1.74078,0.82577 3.42871,1.79457 5.21216,2.53014 2.6712,1.10172 -0.1976,-0.23774 2.4018,1.01877 2.38391,1.10688 4.8958,1.86467 7.43696,2.50984 2.57745,0.63274 5.22896,0.79542 7.8709,0.88768 2.64993,0.0719 5.3011,0.0509 7.95166,0.0478 2.63607,-0.002 5.2721,-0.012 7.90817,-0.009 1.76784,-0.0781 3.54872,0.097 5.31532,-0.002 1.00329,-0.0562 -0.85699,-0.21062 0.13126,-0.39159 1.84183,-0.33803 -1.60195,2.35083 0.22978,2.03471 l -0.69847,1.80411 0,0 c -1.82523,0.31674 2.62977,0.15429 -2.75835,0.48764 -2.67201,0.40356 -5.3559,0.31692 -8.05265,0.30578 -2.63774,0.007 -5.27549,0.004 -7.91322,0.0132 -2.65618,0.004 -5.31321,0.008 -7.9684,-0.0736 -2.67161,-0.12691 -5.34837,-0.32931 -7.9445,-1.01956 -2.57926,-0.66004 -5.12417,-1.47457 -7.53736,-2.61106 -3.93995,-1.84042 1.83941,0.83346 -2.38061,-1.02886 -1.76467,-0.77876 -3.44535,-1.74718 -5.19888,-2.55017 -2.38145,-1.14623 -4.76371,-2.29711 -7.22303,-3.26975 -2.53161,-0.98526 -5.20988,-1.50869 -7.93512,-1.43301 -2.76386,0.25382 -5.49939,0.71073 -8.08151,1.77852 -1.44213,0.5612 -1.29725,0.4811 -2.70637,1.12447 -0.43363,0.19798 -1.69686,0.8639 -1.29355,0.60978 9.30658,-5.8639 4.55623,-2.62191 2.47751,-1.34995 -1.6581,1.44074 -3.26166,3.28187 -3.75892,5.49991 -0.0966,0.43107 -0.0957,0.87834 -0.14354,1.31751 0.10765,2.65044 0.62207,5.25143 2.00964,7.55314 1.3896,2.12296 3.187,3.81794 5.26282,5.27293 1.90979,1.33258 3.62256,2.92476 5.26876,4.56848 1.60295,1.7076 3.37104,3.32925 4.27175,5.54898 0.20682,0.75467 0.50087,1.71163 0.58297,2.49208 0.18829,1.78965 -0.15401,3.60538 -0.27698,5.38487 -0.30148,2.02324 -0.213,6.5598 -1.00926,8.45427 l -7.18173,0.87654 z"
       inkscape:connector-curvature="0"
       sodipodi:nodetypes="ccscsccccccccccsccccccccccccccccsccccsscccccccccccc" />
  </g>
</svg>
