<?xml version="1.0" encoding="UTF-8" standalone="no"?>
<!-- Generator: Adobe Illustrator 14.0.0, SVG Export Plug-In . SVG Version: 6.00 Build 43363)  -->

<svg
   xmlns:dc="http://purl.org/dc/elements/1.1/"
   xmlns:cc="http://creativecommons.org/ns#"
   xmlns:rdf="http://www.w3.org/1999/02/22-rdf-syntax-ns#"
   xmlns:svg="http://www.w3.org/2000/svg"
   xmlns="http://www.w3.org/2000/svg"
   xmlns:sodipodi="http://sodipodi.sourceforge.net/DTD/sodipodi-0.dtd"
   xmlns:inkscape="http://www.inkscape.org/namespaces/inkscape"
   version="1.1"
   id="Layer_1"
   x="0px"
   y="0px"
   width="600px"
   height="400px"
   viewBox="0 0 600 400"
   enable-background="new 0 0 600 400"
   xml:space="preserve"
   inkscape:version="0.48.2 r9819"
   sodipodi:docname="Waggle_yang.svg"><metadata
   id="metadata15045"><rdf:RDF><cc:Work
       rdf:about=""><dc:format>image/svg+xml</dc:format><dc:type
         rdf:resource="http://purl.org/dc/dcmitype/StillImage" /></cc:Work></rdf:RDF></metadata><defs
   id="defs15043" /><sodipodi:namedview
   pagecolor="#ffffff"
   bordercolor="#666666"
   borderopacity="1"
   objecttolerance="10"
   gridtolerance="10"
   guidetolerance="10"
   inkscape:pageopacity="0"
   inkscape:pageshadow="2"
   inkscape:window-width="761"
   inkscape:window-height="609"
   id="namedview15041"
   showgrid="false"
   inkscape:zoom="1.668772"
   inkscape:cx="284.29362"
   inkscape:cy="187.9898"
   inkscape:window-x="0"
   inkscape:window-y="0"
   inkscape:window-maximized="0"
   inkscape:current-layer="Layer_1" />

<g
   id="g15019"
   transform="matrix(10.637753,0,0,11.167799,-3449.6939,-2733.7958)">
	<g
   id="g15021">
		
			<polyline
   stroke-miterlimit="10"
   points="    330.625,259.858 330.679,259.722 330.736,259.585 330.795,259.449 330.853,259.313 330.911,259.178 330.969,259.044     331.026,258.91 331.085,258.775 331.143,258.645 331.201,258.514 331.259,258.385 331.316,258.256 331.371,258.13 331.43,258.006     331.487,257.883 331.546,257.762 331.604,257.644 331.661,257.527 331.72,257.413 331.777,257.301 331.836,257.191     331.894,257.085 331.951,256.981 332.006,256.88 332.064,256.782 332.122,256.688 332.18,256.597 332.238,256.508     332.296,256.423 332.354,256.34 332.412,256.262 332.47,256.187 332.527,256.116 332.586,256.049 332.641,255.984     332.699,255.925 332.757,255.869 332.814,255.817 332.873,255.771 332.931,255.725 332.989,255.686 333.047,255.649     333.104,255.618 333.163,255.591 333.221,255.567 333.279,255.55 333.333,255.534 333.392,255.523 333.449,255.519     333.507,255.518 333.565,255.521 333.623,255.526 333.681,255.538 333.739,255.554 333.798,255.573 333.855,255.598     333.913,255.625 333.968,255.658 334.025,255.695 334.084,255.736 334.142,255.781 334.2,255.83 334.258,255.883 334.315,255.939     334.374,256 334.433,256.064 334.49,256.133 334.548,256.205 334.603,256.28 334.66,256.36 334.719,256.442 334.776,256.529     334.834,256.619 334.893,256.711 334.951,256.807 335.009,256.906 335.066,257.008 335.124,257.111 335.183,257.219     335.237,257.329 335.295,257.441 335.354,257.556 335.411,257.673 335.469,257.793 335.527,257.914 335.585,258.037     335.644,258.162 335.701,258.288 335.759,258.417 335.817,258.547 335.875,258.677 335.93,258.809 335.988,258.943     336.046,259.077 336.104,259.212 336.162,259.348 336.22,259.483 336.277,259.62 336.336,259.756 336.394,259.893     336.452,260.029 336.51,260.165 336.564,260.303 336.622,260.438 336.681,260.573 336.738,260.708 336.797,260.842     336.854,260.975 336.912,261.104 336.971,261.236 337.028,261.365 337.087,261.492 337.145,261.618 337.199,261.742     337.257,261.864 337.315,261.985 337.373,262.104 337.431,262.22 337.489,262.333 337.547,262.444 337.604,262.553     337.663,262.658 337.721,262.762 337.778,262.862 337.837,262.959 337.892,263.054 337.949,263.144 338.008,263.232     338.065,263.316 338.124,263.396 338.182,263.474 338.24,263.549 338.298,263.619 338.355,263.686 338.414,263.748     338.472,263.807 338.526,263.861 338.584,263.913 338.643,263.96 338.7,264.002 338.758,264.042 338.816,264.075 338.874,264.106     338.932,264.132 338.99,264.155 339.049,264.172 339.106,264.187 339.161,264.194 339.219,264.2 339.276,264.2 339.335,264.196     339.393,264.188 339.451,264.176 339.509,264.158 339.566,264.139 339.625,264.114 339.683,264.084 339.741,264.051     339.799,264.013 339.854,263.971 339.911,263.925 339.97,263.875 340.027,263.82 340.086,263.763 340.143,263.701     340.202,263.636 340.26,263.566 340.317,263.493 340.375,263.416 340.434,263.336 340.488,263.253 340.546,263.167     340.604,263.077 340.662,262.983 340.72,262.887 340.778,262.787 340.836,262.684 340.895,262.579 340.952,262.472     341.01,262.361 341.068,262.248 341.122,262.132 341.181,262.015 341.238,261.896 341.297,261.772 341.354,261.649     341.413,261.525 341.471,261.397 341.528,261.269 341.587,261.139 341.645,261.008 341.703,260.875 341.758,260.741     341.815,260.607 341.873,260.472 341.932,260.337 341.989,260.201 342.047,260.063 342.105,259.928 342.163,259.79     342.222,259.653 342.279,259.517 342.338,259.381 342.396,259.246 342.45,259.11 342.508,258.977 342.566,258.843 342.624,258.71     342.682,258.579 342.74,258.448 342.798,258.32 342.855,258.192 342.914,258.068 342.972,257.945 343.029,257.822     343.084,257.703 343.143,257.586 343.2,257.47 343.259,257.356 343.316,257.246 343.374,257.138 343.433,257.033 343.491,256.931     343.549,256.831 343.606,256.734 343.665,256.641 343.72,256.551 343.777,256.465 343.835,256.381 343.894,256.3 343.951,256.225     344.009,256.15 344.067,256.081 344.125,256.016 344.183,255.954 344.241,255.896 344.3,255.843 344.357,255.793 344.412,255.746     344.47,255.705 344.527,255.666 344.586,255.633 344.644,255.604 344.702,255.579 344.76,255.559 344.817,255.542     344.876,255.528 344.935,255.521 344.992,255.518 345.047,255.518 345.104,255.523 345.162,255.531 345.221,255.546     345.278,255.562 345.336,255.584   "
   id="polyline15023"
   style="fill:none;stroke:#000000;stroke-width:0.1874;stroke-linecap:round;stroke-linejoin:round;stroke-miterlimit:10" />
		
			<polyline
   stroke-miterlimit="10"
   points="    345.336,255.584 345.395,255.611 345.453,255.642 345.511,255.676 345.568,255.715 345.626,255.758 345.681,255.804     345.739,255.855 345.797,255.91 345.855,255.97 345.913,256.032 345.971,256.099 346.029,256.169 346.087,256.243     346.146,256.321 346.203,256.401 346.261,256.485 346.319,256.572 346.373,256.664 346.432,256.758 346.49,256.855     346.548,256.956 346.605,257.06 346.664,257.165 346.722,257.273 346.779,257.385 346.838,257.498 346.896,257.614     346.954,257.732 347.009,257.854 347.066,257.976 347.124,258.1 347.182,258.226 347.24,258.353 347.299,258.481 347.356,258.611     347.414,258.743 347.472,258.876 347.53,259.01 347.589,259.145 347.644,259.279 347.701,259.415 347.759,259.552     347.817,259.688 347.875,259.825 347.933,259.961 347.991,260.098 348.049,260.234 348.106,260.37 348.165,260.506     348.223,260.641 348.277,260.774 348.335,260.908 348.394,261.04 348.452,261.171 348.51,261.301 348.567,261.43 348.625,261.556     348.684,261.681 348.742,261.804 348.8,261.925 348.857,262.045 348.916,262.161 348.97,262.276 349.028,262.389 349.086,262.499     349.145,262.605 349.202,262.71 349.26,262.812 349.318,262.91 349.376,263.006 349.434,263.099 349.492,263.188 349.551,263.275     349.604,263.357 349.663,263.438 349.721,263.512 349.778,263.583 349.836,263.652 349.895,263.718 349.953,263.778     350.011,263.835 350.068,263.887 350.127,263.937 350.185,263.981 350.239,264.022 350.298,264.059 350.355,264.092     350.413,264.12 350.472,264.144 350.529,264.164 350.588,264.18 350.645,264.191 350.704,264.197 350.762,264.2 350.819,264.199     350.877,264.192 350.932,264.182 350.989,264.168 351.048,264.15 351.106,264.126 351.164,264.1 351.222,264.067 351.28,264.032     351.338,263.991 351.396,263.947 351.454,263.9 351.512,263.849 351.566,263.792 351.624,263.732 351.683,263.669 351.74,263.602     351.799,263.531 351.856,263.456 351.915,263.377 351.973,263.295 352.03,263.21 352.089,263.121 352.146,263.03 352.201,262.935     352.26,262.838 352.317,262.735 352.375,262.633 352.433,262.526 352.491,262.417 352.549,262.304 352.607,262.19     352.665,262.074 352.724,261.956 352.781,261.835 352.84,261.711 352.895,261.588 352.952,261.46 353.01,261.333 353.067,261.204     353.126,261.073 353.184,260.941 353.242,260.808 353.3,260.674 353.357,260.54 353.416,260.404 353.474,260.269 353.528,260.132     353.586,259.996 353.645,259.858   "
   id="polyline15025"
   style="fill:none;stroke:#000000;stroke-width:0.1874;stroke-linecap:round;stroke-linejoin:round;stroke-miterlimit:10" />
	</g>
	<g
   id="g15027">
		
			<path
   stroke-miterlimit="10"
   d="m 353.546,260.148 0.055,-0.137 0.058,-0.136 0.059,-0.137 0.058,-0.136 0.059,-0.136 0.058,-0.134 0.059,-0.134 0.058,-0.134 0.059,-0.132 0.058,-0.131 0.058,-0.129 0.058,-0.128 0.056,-0.127 0.058,-0.124 0.058,-0.123 0.059,-0.121 0.058,-0.118 0.058,-0.116 0.059,-0.113 0.058,-0.112 0.059,-0.11 0.058,-0.106 0.059,-0.104 0.054,-0.102 0.059,-0.097 0.058,-0.096 0.058,-0.091 0.059,-0.089 0.058,-0.085 0.059,-0.082 0.058,-0.079 0.058,-0.075 0.059,-0.07 0.059,-0.067 0.054,-0.063 0.059,-0.06 0.058,-0.057 0.058,-0.052 0.059,-0.047 0.059,-0.046 0.058,-0.039 0.058,-0.035 0.059,-0.032 0.058,-0.027 0.058,-0.023 0.059,-0.018 0.055,-0.016 0.058,-0.011 0.058,-0.005 0.059,-0.001 0.058,0.003 0.058,0.006 0.059,0.012 0.059,0.016 0.058,0.02 0.058,0.024 0.058,0.028 0.055,0.032 0.058,0.037 0.06,0.041 0.058,0.045 0.058,0.05 0.058,0.052 0.059,0.057 0.058,0.061 0.058,0.065 0.059,0.067 0.058,0.072 0.055,0.076 0.059,0.079 0.058,0.082 0.058,0.087 0.059,0.09 0.058,0.092 0.059,0.097 0.058,0.099 0.058,0.102 0.059,0.104 0.058,0.106 0.055,0.11 0.059,0.112 0.058,0.115 0.058,0.116 0.059,0.12 0.058,0.121 0.059,0.123 0.058,0.125 0.058,0.126 0.058,0.129 0.059,0.13 0.058,0.13 0.055,0.133 0.059,0.134 0.058,0.134 0.059,0.135 0.058,0.136 0.058,0.136 0.058,0.137 0.059,0.137 0.059,0.136 0.058,0.137 0.058,0.137 0.055,0.137 0.059,0.136 0.058,0.135 0.058,0.135 0.059,0.134 0.058,0.133 0.058,0.131 0.059,0.131 0.059,0.129 0.058,0.127 0.058,0.126 0.055,0.124 0.058,0.122 0.059,0.121 0.058,0.118 0.058,0.116 0.059,0.113 0.058,0.111 0.059,0.108 0.058,0.105 0.058,0.104 0.059,0.101 0.059,0.097 0.054,0.095 0.059,0.09 0.058,0.089 0.058,0.084 0.059,0.08 0.059,0.078 0.058,0.074 0.058,0.07 0.058,0.066 0.059,0.062 0.058,0.059 0.055,0.055 0.058,0.053 0.059,0.046 0.058,0.042 0.059,0.04 0.058,0.034 0.058,0.03 0.059,0.025 0.058,0.023 0.059,0.017 0.058,0.015 0.055,0.008 0.058,0.006 h 0.058 l 0.059,-0.004 0.059,-0.008 0.058,-0.013 0.058,-0.017 0.059,-0.021 0.058,-0.024 0.059,-0.029 0.058,-0.033 0.058,-0.039 0.055,-0.041 0.059,-0.047 0.058,-0.05 0.058,-0.055 0.059,-0.058 0.058,-0.062 0.059,-0.065 0.058,-0.068 0.058,-0.074 0.059,-0.077 0.058,-0.079 0.055,-0.084 0.059,-0.086 0.058,-0.09 0.058,-0.094 0.059,-0.097 0.058,-0.1 0.059,-0.103 0.058,-0.105 0.058,-0.107 0.058,-0.11 0.059,-0.113 0.055,-0.116 0.059,-0.117 0.057,-0.119 0.059,-0.123 0.059,-0.123 0.058,-0.124 0.058,-0.128 0.058,-0.128 0.059,-0.131 0.059,-0.131 0.058,-0.133 0.055,-0.134 0.058,-0.134 0.059,-0.136 0.058,-0.135 0.058,-0.136 0.059,-0.138 0.058,-0.136 0.058,-0.138 c 0,0 0.052,-0.12 0.058,-0.136"
   id="path15029"
   inkscape:connector-curvature="0"
   style="fill:none;stroke:#000000;stroke-width:0.1874;stroke-linecap:round;stroke-linejoin:round;stroke-miterlimit:10" />
		<g
   id="g15031">
			<g
   id="g15033">
				
					<line
   stroke-miterlimit="10"
   x1="365.14301"
   y1="259.944"
   x2="368.5"
   y2="259.944"
   id="line15035"
   style="fill:none;stroke:#000000;stroke-width:0.1874;stroke-linecap:round;stroke-linejoin:round;stroke-miterlimit:10" />
				<path
   d="m 368.942,259.752 c -0.31,-0.093 -0.511,-0.18 -0.76,-0.279 v 0.945 c 0.089,-0.042 0.45,-0.186 0.76,-0.279 0.332,-0.101 0.632,-0.169 0.827,-0.193 -0.195,-0.025 -0.495,-0.093 -0.827,-0.194 z"
   id="path15037"
   inkscape:connector-curvature="0" />
			</g>
		</g>
	</g>
	
		<line
   stroke-miterlimit="10"
   x1="330.60599"
   y1="259.83801"
   x2="329.509"
   y2="259.83801"
   id="line15039"
   style="fill:none;stroke:#000000;stroke-width:0.1874;stroke-linecap:round;stroke-linejoin:round;stroke-miterlimit:10" />
</g>
</svg>