<?xml version="1.0" encoding="UTF-8" standalone="no"?>
<!-- Created with Inkscape (http://www.inkscape.org/) -->

<svg
   xmlns:dc="http://purl.org/dc/elements/1.1/"
   xmlns:cc="http://creativecommons.org/ns#"
   xmlns:rdf="http://www.w3.org/1999/02/22-rdf-syntax-ns#"
   xmlns:svg="http://www.w3.org/2000/svg"
   xmlns="http://www.w3.org/2000/svg"
   xmlns:sodipodi="http://sodipodi.sourceforge.net/DTD/sodipodi-0.dtd"
   xmlns:inkscape="http://www.inkscape.org/namespaces/inkscape"
   inkscape:version="0.48.2 r9819"
   version="1.1"
   id="svg3101"
   height="1052.3622047"
   width="744.09448819"
   sodipodi:docname="wave.svg">
  <sodipodi:namedview
     id="base"
     pagecolor="#ffffff"
     bordercolor="#666666"
     borderopacity="1.0"
     inkscape:pageopacity="0.0"
     inkscape:pageshadow="2"
     inkscape:zoom="0.98994949"
     inkscape:cx="431.98436"
     inkscape:cy="493.89616"
     inkscape:document-units="px"
     inkscape:current-layer="svg3101"
     showgrid="false"
     inkscape:window-width="1400"
     inkscape:window-height="975"
     inkscape:window-x="-9"
     inkscape:window-y="-9"
     inkscape:window-maximized="1" />
  <defs
     id="defs3103" />
  <metadata
     id="metadata3106">
    <rdf:RDF>
      <cc:Work
         rdf:about="">
        <dc:format>image/svg+xml</dc:format>
        <dc:type
           rdf:resource="http://purl.org/dc/dcmitype/StillImage" />
        <dc:title></dc:title>
      </cc:Work>
    </rdf:RDF>
  </metadata>
  <g
     id="layer1"
     inkscape:groupmode="layer"
     inkscape:label="Layer 1" />
  <path
     id="path4193"
     title="sin(x)"
     d="m 695.9951,491.7275 c -12.38912,0 -24.77951,0.0534 -37.1676,-0.0796 -5.97162,7.71757 -11.94325,15.43135 -17.91489,22.43492 -5.97163,7.00358 -11.94326,13.29287 -17.91489,18.28785 -5.97162,4.99497 -11.94325,8.69722 -17.91488,10.76027 -5.97163,2.06306 -11.94326,2.4939 -17.91489,1.24368 -5.97163,-1.25021 -11.94325,-4.17042 -17.91488,-8.50281 -5.97163,-4.33238 -11.94325,-10.06385 -17.91488,-16.67756 -5.97163,-6.61372 -11.94326,-14.09698 -17.91489,-21.76949 -5.97163,-7.67251 -11.94326,-15.52428 -17.91489,-22.83733 -5.97163,-7.31304 -11.94326,-14.08195 -17.91489,-19.68372 -5.97162,-5.60177 -11.94325,-10.03657 -17.91488,-12.89158 -5.97163,-2.85502 -11.94326,-4.13595 -17.91489,-3.71646 -5.97163,0.41949 -11.94325,2.52921 -17.91488,6.14566 -5.97163,3.61645 -11.94326,8.72684 -17.91489,14.87175 -5.97163,6.14492 -11.94326,13.31133 -17.91489,20.84882 -5.97163,7.5375 -11.94326,15.43522 -17.91489,22.972 -5.97162,7.53678 -11.94325,14.70592 -17.91488,20.84882 -5.97162,6.14289 -11.94325,11.25825 -17.91488,14.87175 -5.97163,3.6135 -11.94326,5.72951 -17.91489,6.14566 -5.97162,0.41615 -11.94325,-0.85834 -17.91488,-3.71646 -5.97163,-2.85812 -11.94327,-7.28751 -17.9149,-12.89158 -5.97163,-5.60407 -11.94325,-12.36961 -17.91488,-19.68372 -5.97163,-7.31411 -11.94326,-15.16518 -17.91489,-22.83733 -5.97163,-7.67215 -11.94326,-15.15749 -17.91488,-21.76949 -5.97163,-6.61199 -11.94326,-12.34794 -17.91489,-16.67756 -5.97163,-4.32962 -11.94326,-7.2559 -17.91488,-8.50281 -5.97163,-1.24692 -11.94325,-0.8226 -17.91489,1.24368 -5.97163,2.06628 -11.94326,5.76275 -17.91489,10.76027 -5.97163,4.99753 -11.94326,11.28287 -17.91488,18.28785 -5.97163,7.00498 -11.94326,14.71735 -17.91489,22.43492 -1.6485,0.36326 -3.28503,0.78594 -4.94551,1.08977 -0.9242,0.16911 -2.08907,0 -3.03046,0 -0.33672,0 -1.01015,0.33672 -1.01015,0 0,-0.33672 1.34687,0 1.01015,0 -0.67343,0 -1.34687,0 -2.0203,0 -0.33672,0 -1.01016,0.33672 -1.01016,0 0,-0.33672 1.34687,0 1.01016,0 -0.67344,0 -1.34687,0 -2.02031,0 -0.33672,0 -1.01015,0.33672 -1.01015,0 0,-0.33672 1.34687,0 1.01015,0 -1.34687,0 -2.69374,0 -4.04061,0 -1.73297,0 -3.7124,0 -6.06091,0 -5.39285,0 -3.3661,0 -6.06092,0 -0.33672,0 -0.77206,0.2381 -1.01015,0 -0.2381,-0.23809 0,-0.67343 0,-1.01015 0,-0.33672 -0.33672,-1.01015 0,-1.01015 0.33671,0 0.33671,1.01015 0,1.01015 -0.47619,0 -0.67344,-0.67344 -1.01016,-1.01015"
     style="fill:none;stroke:#000000;stroke-width:4.92599678;stroke-miterlimit:4;stroke-opacity:1;stroke-dasharray:none"
     inkscape:connector-curvature="0" />
</svg>
