<?xml version="1.0" encoding="UTF-8" standalone="no"?>
<!-- Created with Inkscape (http://www.inkscape.org/) -->

<svg
   xmlns:dc="http://purl.org/dc/elements/1.1/"
   xmlns:cc="http://creativecommons.org/ns#"
   xmlns:rdf="http://www.w3.org/1999/02/22-rdf-syntax-ns#"
   xmlns:svg="http://www.w3.org/2000/svg"
   xmlns="http://www.w3.org/2000/svg"
   xmlns:sodipodi="http://sodipodi.sourceforge.net/DTD/sodipodi-0.dtd"
   xmlns:inkscape="http://www.inkscape.org/namespaces/inkscape"
   inkscape:version="0.48.2 r9819"
   version="1.1"
   id="svg3101"
   height="1052.3622047"
   width="744.09448819"
   sodipodi:docname="New document 1">
  <sodipodi:namedview
     id="base"
     pagecolor="#ffffff"
     bordercolor="#666666"
     borderopacity="1.0"
     inkscape:pageopacity="0.0"
     inkscape:pageshadow="2"
     inkscape:zoom="0.98994949"
     inkscape:cx="431.98436"
     inkscape:cy="493.89616"
     inkscape:document-units="px"
     inkscape:current-layer="svg3101"
     showgrid="false"
     inkscape:window-width="1400"
     inkscape:window-height="975"
     inkscape:window-x="-9"
     inkscape:window-y="-9"
     inkscape:window-maximized="1" />
  <defs
     id="defs3103">
    <marker
       inkscape:stockid="Arrow1Lend"
       orient="auto"
       refY="0.0"
       refX="0.0"
       id="Arrow1Lend"
       style="overflow:visible;">
      <path
         id="path4789"
         d="M 0.0,0.0 L 5.0,-5.0 L -12.5,0.0 L 5.0,5.0 L 0.0,0.0 z "
         style="fill-rule:evenodd;stroke:#000000;stroke-width:1.0pt;marker-start:none;"
         transform="scale(0.8) rotate(180) translate(12.5,0)" />
    </marker>
    <marker
       inkscape:stockid="Arrow1Lstart"
       orient="auto"
       refY="0.0"
       refX="0.0"
       id="Arrow1Lstart"
       style="overflow:visible">
      <path
         id="path4786"
         d="M 0.0,0.0 L 5.0,-5.0 L -12.5,0.0 L 5.0,5.0 L 0.0,0.0 z "
         style="fill-rule:evenodd;stroke:#000000;stroke-width:1.0pt;marker-start:none"
         transform="scale(0.8) translate(12.5,0)" />
    </marker>
  </defs>
  <metadata
     id="metadata3106">
    <rdf:RDF>
      <cc:Work
         rdf:about="">
        <dc:format>image/svg+xml</dc:format>
        <dc:type
           rdf:resource="http://purl.org/dc/dcmitype/StillImage" />
        <dc:title></dc:title>
      </cc:Work>
    </rdf:RDF>
  </metadata>
  <g
     id="layer1"
     inkscape:groupmode="layer"
     inkscape:label="Layer 1" />
  <path
     id="path4193"
     title="sin(x)"
     d="m 71.13709,490.71737 26.15871,0.93053 c 5.97163,-7.71757 11.94326,-15.42994 17.91489,-22.43492 5.97162,-7.00498 11.94325,-13.29032 17.91488,-18.28785 5.97163,-4.99752 11.94326,-8.69399 17.91489,-10.76027 5.97164,-2.06628 11.94326,-2.4906 17.91489,-1.24368 5.97162,1.24691 11.94325,4.17319 17.91488,8.50281 5.97163,4.32962 11.94326,10.06557 17.91489,16.67756 5.97162,6.612 11.94325,14.09734 17.91488,21.76949 5.97163,7.67215 11.94326,15.52322 17.91489,22.83733 5.97163,7.31411 11.94325,14.07965 17.91488,19.68372 5.97163,5.60407 11.94327,10.03346 17.9149,12.89158 5.97163,2.85812 11.94326,4.13261 17.91488,3.71646 5.97163,-0.41615 11.94326,-2.53216 17.91489,-6.14566 5.97163,-3.6135 11.94326,-8.72886 17.91488,-14.87175 5.97163,-6.1429 11.94326,-13.31204 17.91488,-20.84882 5.97163,-7.53678 11.94326,-15.4345 17.91489,-22.972 5.97163,-7.53749 11.94326,-14.7039 17.91489,-20.84882 5.97163,-6.14491 11.94326,-11.2553 17.91489,-14.87175 5.97163,-3.61645 11.94325,-5.72617 17.91488,-6.14566 5.97163,-0.41949 11.94326,0.86144 17.91489,3.71646 5.97163,2.85501 11.94326,7.28981 17.91488,12.89158 5.97163,5.60177 11.94326,12.37068 17.91489,19.68372 5.97163,7.31305 11.94326,15.16482 17.91489,22.83733 5.97163,7.67251 11.94326,15.15577 17.91489,21.76949 5.97163,6.61371 11.94325,12.34518 17.91488,16.67756 5.97163,4.33239 11.94325,7.2526 17.91488,8.50281 5.97163,1.25022 11.94326,0.81938 17.91489,-1.24368 5.97163,-2.06305 11.94326,-5.7653 17.91488,-10.76027 5.97163,-4.99498 11.94326,-11.28427 17.91489,-18.28785 5.97164,-7.00357 11.94327,-14.71735 17.91489,-22.43492 12.38809,0.133 24.77848,0.0796 37.1676,0.0796 1.34687,0.33672 2.67925,0.73789 4.04061,1.01017 0.66036,0.13208 1.34687,0 2.02031,0 1.34687,0 2.69374,0 4.04061,0 0.67343,0 1.34687,0 2.0203,0 0.33672,0 1.34687,0 1.01016,0 -6.27586,0 4.12253,0 5.05076,0 0.67343,0 1.34687,0 2.0203,0 0.33672,0 1.34687,0 1.01016,0 -0.67344,0 -2.69374,0 -2.02031,0 1.34687,0 2.69374,0 4.04061,0 0.33672,0 1.01015,-0.33672 1.01015,0 0,0.33672 -1.34687,0 -1.01015,0 0.67344,0 1.34687,0 2.02031,0 0.33671,0 1.01015,-0.33672 1.01015,0 0,0.33672 -1.34687,0 -1.01015,0 0.67343,0 1.34687,0 2.0203,0 1.68359,0.33672 3.3572,0.72789 5.05077,1.01016 1.26196,0.21032 2.75879,0 4.04061,0 0.67434,0 1.34596,0 2.0203,0 0.33672,0 1.01015,-0.33672 1.01015,0 0,0.33671 -1.34687,0 -1.01015,0 1.01015,0 2.02031,0 3.03046,0"
     style="fill:none;stroke:#000000;stroke-width:4.726;stroke-miterlimit:4;stroke-opacity:1;stroke-dasharray:none;marker-end:url(#Arrow1Lend)"
     inkscape:connector-curvature="0" />
</svg>
